<svg width="74" height="74" viewBox="0 0 74 74" fill="none" xmlns="http://www.w3.org/2000/svg">
<rect width="74" height="74" rx="3" transform="matrix(-1 0 0 1 74 0)" fill="#FFA000"/>
<path d="M18.8168 64.383C23.0788 64.383 26.5339 60.8806 26.5339 56.5602C26.5339 52.2397 23.0788 48.7373 18.8168 48.7373C14.5547 48.7373 11.0996 52.2397 11.0996 56.5602C11.0996 60.8806 14.5547 64.383 18.8168 64.383Z" fill="white"/>
<path d="M11.0996 27.8789V38.3107C25.2837 38.3107 36.8247 50.0059 36.8247 64.3843H47.1117C47.1117 44.2561 30.9558 27.8789 11.0996 27.8789Z" fill="white"/>
<path d="M11.0996 9.62207V20.0539C35.2157 20.0539 54.8327 39.9356 54.8327 64.3821H65.1196C65.1196 34.1858 40.8878 9.62207 11.0996 9.62207Z" fill="white"/>
</svg>
