<svg width="74" height="74" viewBox="0 0 74 74" fill="none" xmlns="http://www.w3.org/2000/svg">
<rect width="74" height="74" rx="3" transform="matrix(-1 0 0 1 74 0)" fill="#03A9F4"/>
<g clip-path="url(#clip0)">
<path d="M68.0802 18.4673C65.7961 19.4813 63.3623 20.1534 60.8249 20.4797C63.4353 18.9024 65.4276 16.4238 66.3642 13.4362C63.9305 14.9048 61.2433 15.942 58.3796 16.5209C56.0687 14.0306 52.7751 12.4883 49.182 12.4883C42.2108 12.4883 36.5986 18.2148 36.5986 25.235C36.5986 26.2451 36.683 27.2163 36.8903 28.1409C26.422 27.6242 17.1591 22.5465 10.9365 14.8115C9.85016 16.719 9.21293 18.9024 9.21293 21.2528C9.21293 25.6662 11.4586 29.5784 14.806 31.8434C12.783 31.8045 10.7983 31.2101 9.11696 30.2738C9.11696 30.3127 9.11696 30.3632 9.11696 30.4137C9.11696 36.6064 13.4816 41.7501 19.2052 42.935C18.1802 43.2186 17.0632 43.3546 15.9039 43.3546C15.0977 43.3546 14.2839 43.308 13.52 43.137C15.1515 48.1837 19.781 51.8938 25.2858 52.0143C21.0017 55.4059 15.5622 57.4494 9.67358 57.4494C8.64095 57.4494 7.65055 57.4028 6.66016 57.2746C12.2379 60.9148 18.8482 62.9933 25.9767 62.9933C49.1474 62.9933 61.8153 43.5683 61.8153 26.7307C61.8153 26.1674 61.7961 25.6235 61.7693 25.0835C64.2683 23.2886 66.3681 21.0469 68.0802 18.4673Z" fill="white"/>
</g>
<defs>
<clipPath id="clip0">
<rect width="61.42" height="62.16" fill="white" transform="translate(6.66016 6.66113)"/>
</clipPath>
</defs>
</svg>
