<svg width="18" height="17" viewBox="0 0 18 17" fill="none" xmlns="http://www.w3.org/2000/svg">
<path d="M3 10.4817V7C3 5.4087 3.63214 3.88258 4.75736 2.75736C5.88258 1.63214 7.4087 1 9 1V1C10.5913 1 12.1174 1.63214 13.2426 2.75736C14.3679 3.88258 15 5.4087 15 7V10.4817H14.9955L16.3715 11.8588C16.6697 12.1572 16.8727 12.5374 16.9549 12.9512C17.037 13.365 16.9947 13.7939 16.8331 14.1836C16.6715 14.5734 16.398 14.9064 16.0472 15.1407C15.6963 15.3751 15.2839 15.5001 14.862 15.5H3.138C2.7161 15.5001 2.30366 15.3751 1.95281 15.1407C1.60196 14.9064 1.32846 14.5734 1.1669 14.1836C1.00533 13.7939 0.962956 13.365 1.04513 12.9512C1.12729 12.5374 1.33032 12.1572 1.62853 11.8588L3.00453 10.4817" stroke="#C2C2C4" stroke-width="1.5" stroke-linecap="round" stroke-linejoin="round"/>
</svg>
