<svg width="18" height="18" viewBox="0 0 18 18" fill="none" xmlns="http://www.w3.org/2000/svg">
<path d="M15 5.25H3C2.586 5.25 2.25 4.914 2.25 4.5V3C2.25 2.586 2.586 2.25 3 2.25H15C15.414 2.25 15.75 2.586 15.75 3V4.5C15.75 4.914 15.414 5.25 15 5.25Z" stroke="#448ED9" stroke-width="1.5" stroke-linecap="round" stroke-linejoin="round"/>
<path d="M15 10.5H3C2.586 10.5 2.25 10.164 2.25 9.75001V8.25001C2.25 7.83601 2.586 7.50001 3 7.50001H15C15.414 7.50001 15.75 7.83601 15.75 8.25001V9.75001C15.75 10.164 15.414 10.5 15 10.5Z" stroke="#448ED9" stroke-width="1.5" stroke-linecap="round" stroke-linejoin="round"/>
<path d="M15 15.75H3C2.586 15.75 2.25 15.414 2.25 15V13.5C2.25 13.086 2.586 12.75 3 12.75H15C15.414 12.75 15.75 13.086 15.75 13.5V15C15.75 15.414 15.414 15.75 15 15.75Z" stroke="#448ED9" stroke-width="1.5" stroke-linecap="round" stroke-linejoin="round"/>
</svg>
