<svg width="61" height="61" viewBox="0 0 61 61" fill="none" xmlns="http://www.w3.org/2000/svg">
<path d="M30.5 61C47.3447 61 61 47.3447 61 30.5C61 13.6553 47.3447 0 30.5 0C13.6553 0 0 13.6553 0 30.5C0 47.3447 13.6553 61 30.5 61Z" fill="#FF696B"/>
<path d="M43.8438 30.5017C43.4473 30.5017 43.0431 30.3759 42.7 30.1204L35.075 24.4017C34.5946 24.0433 34.3125 23.4752 34.3125 22.8767C34.3125 22.2781 34.5946 21.7101 35.075 21.3517L42.7 15.6329C43.5388 15.0039 44.7321 15.1678 45.3688 16.0142C45.9978 16.8567 45.8263 18.0501 44.9837 18.6829L39.3946 22.8767L44.9875 27.0704C45.8301 27.7033 46.0016 28.8966 45.3726 29.7392C44.9951 30.2386 44.4194 30.5017 43.8438 30.5017Z" fill="#BA4A4B"/>
<path d="M17.1531 30.5012C16.5736 30.5012 16.0017 30.2382 15.6281 29.7387C14.9952 28.8962 15.1668 27.7028 16.0093 27.07L21.6023 22.8762L16.0093 18.6825C15.1668 18.0496 14.9952 16.8563 15.6281 16.0137C16.2609 15.1711 17.4543 14.9996 18.2968 15.6325L25.9218 21.3512C26.4022 21.7096 26.6843 22.2776 26.6843 22.8762C26.6843 23.4748 26.4022 24.0428 25.9218 24.4012L18.2968 30.12C17.9537 30.3754 17.5534 30.5012 17.1531 30.5012Z" fill="#BA4A4B"/>
<path d="M45.7482 45.7524C45.4623 45.7524 45.1725 45.6876 44.8942 45.5503L38.1232 42.1648L31.3522 45.5541C30.8146 45.821 30.1818 45.821 29.648 45.5541L22.8732 42.1648L16.1022 45.5541C15.1605 46.0307 14.0168 45.638 13.544 44.7001C13.0713 43.7585 13.4563 42.6147 14.398 42.142L22.023 38.3295C22.5606 38.0626 23.1934 38.0626 23.7272 38.3295L30.4982 41.715L37.2692 38.3256C37.8068 38.0588 38.4396 38.0588 38.9734 38.3256L46.5984 42.1381C47.5401 42.6109 47.9213 43.7546 47.4524 44.6963C47.1169 45.3635 46.4459 45.7524 45.7482 45.7524Z" fill="#BA4A4B"/>
</svg>
