<svg width="62" height="61" viewBox="0 0 62 61" fill="none" xmlns="http://www.w3.org/2000/svg">
<g clip-path="url(#clip0)">
<path d="M30.9297 61C47.7744 61 61.4297 47.3447 61.4297 30.5C61.4297 13.6553 47.7744 0 30.9297 0C14.085 0 0.429688 13.6553 0.429688 30.5C0.429688 47.3447 14.085 61 30.9297 61Z" fill="#FF9820"/>
<path d="M43.0625 46.9624C42.5745 46.9624 42.0865 46.7756 41.7129 46.4058C35.9484 40.6413 25.9063 40.6413 20.1456 46.4058C19.4022 47.1492 18.1936 47.1492 17.4502 46.4058C16.7067 45.6623 16.7067 44.4538 17.4502 43.7103C21.053 40.1113 25.8377 38.125 30.9312 38.125C36.0247 38.125 40.8093 40.1113 44.4083 43.7103C45.1518 44.4538 45.1518 45.6623 44.4083 46.4058C44.0385 46.7794 43.5505 46.9624 43.0625 46.9624Z" fill="#B96402"/>
<path d="M19.4922 26.6875C21.5978 26.6875 23.3047 24.9806 23.3047 22.875C23.3047 20.7694 21.5978 19.0625 19.4922 19.0625C17.3866 19.0625 15.6797 20.7694 15.6797 22.875C15.6797 24.9806 17.3866 26.6875 19.4922 26.6875Z" fill="#B96402"/>
<path d="M42.3672 26.6875C44.4728 26.6875 46.1797 24.9806 46.1797 22.875C46.1797 20.7694 44.4728 19.0625 42.3672 19.0625C40.2616 19.0625 38.5547 20.7694 38.5547 22.875C38.5547 24.9806 40.2616 26.6875 42.3672 26.6875Z" fill="#B96402"/>
</g>
<defs>
<clipPath id="clip0">
<rect width="61" height="61" fill="white" transform="translate(0.429688)"/>
</clipPath>
</defs>
</svg>
