<svg width="62" height="61" viewBox="0 0 62 61" fill="none" xmlns="http://www.w3.org/2000/svg">
<g clip-path="url(#clip0)">
<path d="M31.3555 61C48.2002 61 61.8555 47.3447 61.8555 30.5C61.8555 13.6553 48.2002 0 31.3555 0C14.5108 0 0.855469 13.6553 0.855469 30.5C0.855469 47.3447 14.5108 61 31.3555 61Z" fill="#FFC526"/>
<path d="M19.918 26.6875C22.0236 26.6875 23.7305 24.9806 23.7305 22.875C23.7305 20.7694 22.0236 19.0625 19.918 19.0625C17.8124 19.0625 16.1055 20.7694 16.1055 22.875C16.1055 24.9806 17.8124 26.6875 19.918 26.6875Z" fill="#A87D06"/>
<path d="M42.793 26.6875C44.8986 26.6875 46.6055 24.9806 46.6055 22.875C46.6055 20.7694 44.8986 19.0625 42.793 19.0625C40.6874 19.0625 38.9805 20.7694 38.9805 22.875C38.9805 24.9806 40.6874 26.6875 42.793 26.6875Z" fill="#A87D06"/>
<path d="M40.8867 45.75H21.8242C20.772 45.75 19.918 44.896 19.918 43.8438C19.918 42.7915 20.772 41.9375 21.8242 41.9375H40.8867C41.939 41.9375 42.793 42.7915 42.793 43.8438C42.793 44.896 41.939 45.75 40.8867 45.75Z" fill="#A87D06"/>
</g>
<defs>
<clipPath id="clip0">
<rect width="61" height="61" fill="white" transform="translate(0.855469)"/>
</clipPath>
</defs>
</svg>
