<svg width="62" height="61" viewBox="0 0 62 61" fill="none" xmlns="http://www.w3.org/2000/svg">
<g clip-path="url(#clip0)">
<path d="M30.7852 61C47.6298 61 61.2852 47.3447 61.2852 30.5C61.2852 13.6553 47.6298 0 30.7852 0C13.9405 0 0.285156 13.6553 0.285156 30.5C0.285156 47.3447 13.9405 61 30.7852 61Z" fill="#B3DE7C"/>
<path d="M19.3477 26.6875C21.4532 26.6875 23.1602 24.9806 23.1602 22.875C23.1602 20.7694 21.4532 19.0625 19.3477 19.0625C17.2421 19.0625 15.5352 20.7694 15.5352 22.875C15.5352 24.9806 17.2421 26.6875 19.3477 26.6875Z" fill="#6F9E33"/>
<path d="M42.2227 26.6875C44.3282 26.6875 46.0352 24.9806 46.0352 22.875C46.0352 20.7694 44.3282 19.0625 42.2227 19.0625C40.1171 19.0625 38.4102 20.7694 38.4102 22.875C38.4102 24.9806 40.1171 26.6875 42.2227 26.6875Z" fill="#6F9E33"/>
<path d="M30.7866 49.5634C25.6931 49.5634 20.9084 47.5771 17.3056 43.9781C16.5622 43.2347 16.5622 42.0261 17.3056 41.2827C18.0491 40.5392 19.2576 40.5392 20.0011 41.2827C25.7617 47.0472 35.8039 47.0472 41.5684 41.2827C42.3118 40.5392 43.5204 40.5392 44.2638 41.2827C45.0072 42.0261 45.0072 43.2347 44.2638 43.9781C40.6648 47.5771 35.8801 49.5634 30.7866 49.5634Z" fill="#6F9E33"/>
</g>
<defs>
<clipPath id="clip0">
<rect width="61" height="61" fill="white" transform="translate(0.285156)"/>
</clipPath>
</defs>
</svg>
