<svg width="62" height="61" viewBox="0 0 62 61" fill="none" xmlns="http://www.w3.org/2000/svg">
<g clip-path="url(#clip0)">
<path d="M31.2148 61C48.0595 61 61.7148 47.3447 61.7148 30.5C61.7148 13.6553 48.0595 0 31.2148 0C14.3702 0 0.714844 13.6553 0.714844 30.5C0.714844 47.3447 14.3702 61 31.2148 61Z" fill="#5FB456"/>
<path d="M52.9024 35.0674C52.544 34.5908 51.9798 34.3125 51.385 34.3125H11.0488C10.4502 34.3125 9.8898 34.5908 9.53142 35.0674C9.16924 35.5439 9.05105 36.1577 9.21499 36.7372C11.9714 46.5316 21.0185 53.375 31.2169 53.375C41.4154 53.375 50.4624 46.5316 53.2189 36.7372C53.379 36.1577 53.2646 35.5439 52.9024 35.0674Z" fill="#17760D"/>
<path d="M19.7773 26.6875C21.8829 26.6875 23.5898 24.9806 23.5898 22.875C23.5898 20.7694 21.8829 19.0625 19.7773 19.0625C17.6718 19.0625 15.9648 20.7694 15.9648 22.875C15.9648 24.9806 17.6718 26.6875 19.7773 26.6875Z" fill="#17760D"/>
<path d="M42.6523 26.6875C44.7579 26.6875 46.4648 24.9806 46.4648 22.875C46.4648 20.7694 44.7579 19.0625 42.6523 19.0625C40.5468 19.0625 38.8398 20.7694 38.8398 22.875C38.8398 24.9806 40.5468 26.6875 42.6523 26.6875Z" fill="#17760D"/>
</g>
<defs>
<clipPath id="clip0">
<rect width="61" height="61" fill="white" transform="translate(0.714844)"/>
</clipPath>
</defs>
</svg>
