<svg width="75" height="75" viewBox="0 0 75 75" fill="none" xmlns="http://www.w3.org/2000/svg">
<path d="M44.4387 23.346C45.0615 26.2806 45.4122 29.2654 45.584 32.2503C45.6413 33.2692 45.6771 34.288 45.6985 35.3141H22.9711C23.0212 31.2673 23.422 27.2636 24.2524 23.3245C25.7628 23.8554 27.3233 24.2716 28.9053 24.5514C34.1093 25.4698 39.4637 25.0537 44.4387 23.346Z" fill="#5C6BA0"/>
<path d="M45.6985 37.4666C45.6412 41.5348 45.2618 45.517 44.4243 49.4561C42.9067 48.9252 41.3534 48.509 39.7643 48.2292C39.256 48.1359 38.7478 48.0642 38.2324 47.9996C36.0706 47.7269 33.8945 47.6767 31.7327 47.8633C31.6826 47.8633 31.6325 47.8705 31.5824 47.8776C29.0841 48.1072 26.6145 48.6454 24.2452 49.4705C24.2452 49.4562 24.238 49.449 24.238 49.4346C23.4721 45.8327 23.107 42.1878 22.9996 38.4782C22.9925 38.141 22.9853 37.8038 22.9781 37.4666H45.6985Z" fill="#5C6BA0"/>
<path d="M15.0181 54.5289C14.739 54.7514 14.4598 54.981 14.1949 55.2178C13.9229 55.4545 13.6581 55.6913 13.3932 55.9353C12.0546 54.4859 10.8592 52.9074 9.83557 51.214C7.33733 47.074 5.93431 42.2954 5.7482 37.4666H20.8163C20.8736 41.7429 21.3103 46.0336 22.2122 50.2095C21.7755 50.3961 21.346 50.5898 20.9165 50.7907C18.8192 51.7952 16.8363 53.0581 15.0181 54.5289Z" fill="#5C6BA0"/>
<path d="M28.7047 64.5167C28.7047 64.5239 28.7119 64.5239 28.719 64.531C26.593 64.1005 24.5171 63.4404 22.5271 62.5364C19.764 61.2879 17.2085 59.5731 14.9823 57.5138C14.9608 57.4923 14.9394 57.4779 14.9179 57.4564C14.9251 57.4492 14.9322 57.442 14.9394 57.4349C15.1971 57.1981 15.4548 56.9685 15.7125 56.7461C15.7339 56.7676 15.7554 56.7819 15.7769 56.8035C16.0561 56.5667 16.3352 56.3371 16.6144 56.1147C18.497 54.6222 20.5514 53.3738 22.7276 52.3979C23.2787 54.5146 23.9802 56.5882 24.875 58.5829C25.369 59.6879 25.9273 60.7713 26.5787 61.7973C26.8793 62.2781 27.2015 62.7373 27.5451 63.1893C27.7813 63.4907 28.0175 63.7848 28.2752 64.0718C28.4184 64.2153 28.5615 64.366 28.7047 64.5167Z" fill="#5C6BA0"/>
<path d="M53.7301 54.5289C54.0093 54.7514 54.2885 54.981 54.5533 55.2178C54.8254 55.4545 55.0902 55.6913 55.3551 55.9353C56.6937 54.4859 57.8891 52.9074 58.9127 51.214C61.411 47.074 62.814 42.2954 63.0001 37.4666H47.932C47.8747 41.7429 47.438 46.0336 46.5361 50.2095C46.9727 50.3961 47.4022 50.5898 47.8317 50.7907C49.9291 51.7952 51.9119 53.0581 53.7301 54.5289Z" fill="#5C6BA0"/>
<path d="M39.8924 64.5999C39.8924 64.6071 39.8852 64.6071 39.8781 64.6143C42.0041 64.1838 44.08 63.5237 46.07 62.6196C48.833 61.3712 51.3885 59.6563 53.6148 57.597C53.6362 57.5755 53.6577 57.5612 53.6792 57.5396C53.672 57.5325 53.6649 57.5253 53.6577 57.5181C53.4 57.2813 53.1423 57.0517 52.8846 56.8293C52.8631 56.8508 52.8417 56.8652 52.8202 56.8867C52.541 56.6499 52.2619 56.4203 51.9827 56.1979C50.1001 54.7055 48.0456 53.457 45.8695 52.4812C45.3183 54.5979 44.6168 56.6715 43.7221 58.6661C43.2281 59.7711 42.6698 60.8545 42.0184 61.8806C41.7177 62.3613 41.3956 62.8205 41.052 63.2726C40.8158 63.5739 40.5796 63.8681 40.3219 64.1551C40.1787 64.2986 40.0356 64.4493 39.8924 64.5999Z" fill="#5C6BA0"/>
<path d="M5.75528 35.3141C5.7696 34.9625 5.79107 34.6109 5.81255 34.2593C6.26352 28.3255 8.53984 22.6859 12.3122 18.0867C12.6773 17.6418 13.0567 17.2113 13.4504 16.788C13.7153 17.0319 13.9801 17.2687 14.2521 17.5055C14.5241 17.7423 14.7962 17.9719 15.0753 18.1943C17.2514 19.9522 19.6638 21.4159 22.2193 22.528C21.3818 26.3739 20.9666 30.3202 20.852 34.2378C20.8377 34.5966 20.8306 34.9553 20.8306 35.3213H5.75528V35.3141Z" fill="#5C6BA0"/>
<path d="M15.7769 15.9916C15.5049 15.7548 15.2401 15.5181 14.9752 15.2741C18.2394 12.2606 22.2051 10.0148 26.4714 8.78063C27.223 8.56538 27.9889 8.37883 28.7549 8.22815C28.3254 8.65866 27.9245 9.12504 27.5523 9.60577C27.2087 10.0506 26.8866 10.517 26.5859 10.9977C26.5143 11.1054 26.4427 11.2202 26.3783 11.335C25.1185 13.4086 24.1879 15.6831 23.4434 17.9863C23.1857 18.7899 22.9495 19.6007 22.7348 20.4186C22.5343 20.3254 22.3339 20.2393 22.1335 20.1388C20.6374 19.4213 19.2058 18.5818 17.8528 17.6204C17.5522 17.4051 17.1585 17.1181 16.9366 16.9459C16.8507 16.8813 16.7362 16.788 16.6145 16.6876C16.4283 16.5369 16.2208 16.3647 16.049 16.2212C15.9559 16.1423 15.8628 16.0705 15.7769 15.9916Z" fill="#5C6BA0"/>
<path d="M28.1035 12.6264C28.3541 12.1959 28.6261 11.7797 28.9124 11.3707C28.984 11.2703 29.0556 11.1698 29.1271 11.0694C29.1415 11.0479 29.213 10.9618 29.2488 10.9044C29.2488 10.9044 29.2488 10.9044 29.256 10.8972C29.256 10.89 29.2632 10.89 29.2632 10.8828C29.2989 10.8398 29.3705 10.7465 29.392 10.7178C29.4779 10.6174 29.5566 10.5169 29.6425 10.4165C29.6998 10.3447 29.7571 10.2801 29.8215 10.2156C30.0506 9.95725 30.2868 9.71329 30.5373 9.47651C30.6805 9.34019 30.8308 9.20386 30.9811 9.08188C31.0384 9.03166 31.0957 8.98861 31.1529 8.93838C31.1243 8.95991 31.11 8.97426 31.1028 8.98143C31.11 8.97426 31.1315 8.95991 31.1601 8.93838C31.2102 8.89533 31.2818 8.84511 31.3033 8.82358C31.6111 8.60115 31.9332 8.40742 32.2625 8.22805C32.334 8.19217 32.4056 8.1563 32.4844 8.12042C32.513 8.10607 32.5488 8.09172 32.5774 8.07737C32.7349 8.01997 32.8924 7.95539 33.057 7.90517C33.2217 7.85494 33.3792 7.81189 33.5438 7.77602C33.6225 7.76167 33.6941 7.74731 33.7729 7.73296C33.7872 7.73296 33.7943 7.72579 33.8087 7.72579C33.823 7.72579 33.8373 7.72579 33.8516 7.71861C34.1952 7.68991 34.5173 7.71144 34.8609 7.72579C34.8681 7.72579 34.8752 7.72579 34.8824 7.73296C34.9683 7.74731 35.0613 7.76167 35.1472 7.78319C35.3262 7.81907 35.498 7.86929 35.6698 7.92669C35.8058 7.96974 35.9347 8.02714 36.0707 8.07019C36.0349 8.05584 36.0134 8.04867 35.9991 8.04867C36.0277 8.06302 36.1422 8.09889 36.1852 8.12042C36.2711 8.16347 36.357 8.19935 36.4357 8.24957C36.7793 8.42895 37.1086 8.6442 37.4236 8.87381C37.445 8.88816 37.4665 8.90251 37.488 8.92403L37.4952 8.93121C37.5596 8.98861 37.624 9.03883 37.6884 9.08906C37.8531 9.22539 38.0105 9.36889 38.1609 9.51239C38.3899 9.73482 38.6118 9.96442 38.8266 10.2012C38.9053 10.2873 38.9841 10.3734 39.0557 10.4667C39.1344 10.56 39.206 10.6461 39.2776 10.7393C39.3062 10.7752 39.3778 10.8685 39.3993 10.8972C39.3993 10.8972 39.3992 10.9044 39.4064 10.9044C39.5424 11.0837 39.6713 11.2559 39.793 11.4353C41.0528 13.2506 41.9619 15.2094 42.6706 17.1754C43.1645 18.5171 43.5797 19.8804 43.9304 21.258C42.463 21.7818 40.9383 22.1836 39.3491 22.4634C39.0055 22.528 38.6619 22.5782 38.3184 22.6285C38.2969 22.6285 38.2754 22.6357 38.2611 22.6357C38.2611 22.6357 38.2611 22.6357 38.2539 22.6357C38.2468 22.6357 38.2468 22.6357 38.2396 22.6357C38.2325 22.6357 38.2181 22.6357 38.2038 22.6428C38.1108 22.6572 38.0105 22.6644 37.9175 22.6787C37.7027 22.7002 37.488 22.7289 37.2804 22.7505C36.5145 22.8222 35.7485 22.8724 34.9826 22.8868C34.188 22.9011 33.3935 22.8868 32.6061 22.8366C32.2553 22.815 31.9046 22.7863 31.5466 22.7576C31.3534 22.7361 31.1601 22.7218 30.9668 22.7002C30.8738 22.6859 30.7735 22.6787 30.6805 22.6644C30.6375 22.6572 30.6018 22.6572 30.5588 22.65C30.5588 22.65 30.5516 22.65 30.5445 22.65C30.5373 22.65 30.5373 22.65 30.5302 22.65C30.5302 22.65 30.5302 22.65 30.523 22.65C30.523 22.65 30.523 22.65 30.5159 22.65C30.5159 22.65 30.5159 22.65 30.5087 22.65C29.0126 22.4419 27.5309 22.1119 26.0777 21.6742C25.6124 21.5379 25.1758 21.3872 24.7391 21.2365C24.9396 20.4401 25.1686 19.6508 25.412 18.8687C25.5981 18.2732 25.7986 17.6777 26.0205 17.0893C26.1207 16.8166 26.2281 16.544 26.3354 16.2713C26.45 15.9843 26.5502 15.7476 26.6218 15.5825C27.0584 14.5493 27.5452 13.5663 28.1035 12.6264Z" fill="#5C6BA0"/>
<path d="M53.6514 18.2516C53.9306 18.0291 54.2097 17.7995 54.4746 17.5628C54.7466 17.3331 55.0043 17.0964 55.2691 16.8524C56.1281 17.778 56.9299 18.761 57.6743 19.8014C60.8955 24.3217 62.6994 29.7748 62.9142 35.314H47.846C47.7816 31.0448 47.3664 26.7541 46.4573 22.571C46.894 22.3844 47.3235 22.1907 47.7458 21.9898C49.8503 20.9781 51.8332 19.7153 53.6514 18.2516Z" fill="#5C6BA0"/>
<path d="M41.3319 58.7551C40.8666 59.6735 40.3512 60.5704 39.7571 61.4098C39.6497 61.5605 39.5423 61.7184 39.4278 61.8619C39.3992 61.8978 39.299 62.0269 39.2775 62.0556C39.2059 62.1489 39.1272 62.235 39.0556 62.3283C38.984 62.4072 38.9196 62.4861 38.848 62.565C38.6261 62.809 38.4042 63.0458 38.1608 63.2754C38.0176 63.4117 37.8673 63.548 37.717 63.6772C37.6526 63.7346 37.581 63.7848 37.5094 63.8422C37.5165 63.835 37.5309 63.8279 37.5309 63.8207C37.5237 63.8279 37.5094 63.835 37.5022 63.8422C37.4664 63.8709 37.4163 63.9068 37.3877 63.9355C37.0799 64.1579 36.7649 64.3588 36.4285 64.531C36.3569 64.5669 36.2853 64.6028 36.2066 64.6386C36.1422 64.6673 36.0491 64.7104 36.0419 64.7104C35.9059 64.7606 35.7699 64.8108 35.6339 64.8539C35.4693 64.9041 35.3118 64.9472 35.1472 64.983C35.0684 64.9974 34.9968 65.0118 34.9181 65.0261C34.9181 65.0261 34.8966 65.0333 34.8823 65.0333C34.8752 65.0333 34.8608 65.0333 34.8465 65.0333C34.5029 65.062 34.1736 65.0548 33.83 65.0333C33.8229 65.0333 33.8229 65.0333 33.8157 65.0333C33.8086 65.0333 33.7943 65.0261 33.7799 65.0261C33.7012 65.0118 33.6225 64.9974 33.5509 64.983C33.3719 64.9472 33.2001 64.8969 33.0283 64.8467C32.8995 64.8037 32.7778 64.7606 32.6489 64.7104H32.6418H32.6346H32.6275H32.6203C32.5917 64.7032 32.5559 64.6817 32.5201 64.6673C32.427 64.6243 32.3268 64.5741 32.2338 64.5238C31.8973 64.3445 31.5752 64.1436 31.2745 63.9211C31.2459 63.8996 31.203 63.8637 31.1743 63.8422C31.1672 63.8422 31.1672 63.835 31.16 63.835L31.1672 63.8422C31.16 63.835 31.1529 63.8279 31.1457 63.8279C31.1457 63.8279 31.1457 63.8279 31.1385 63.8207C31.0813 63.7776 31.0312 63.7346 30.9739 63.6844C30.8093 63.548 30.6518 63.4045 30.5015 63.2538C30.2724 63.0386 30.0505 62.809 29.8429 62.5722C29.7642 62.4861 29.6854 62.3928 29.6138 62.3067C29.5494 62.2278 29.485 62.1489 29.4206 62.07C29.3991 62.0413 29.2846 61.8978 29.2702 61.8762C29.2702 61.8762 29.2702 61.8762 29.2702 61.8834C29.2702 61.8834 29.2702 61.8762 29.2631 61.8762C29.1271 61.6969 28.9982 61.5247 28.8765 61.3453C28.5974 60.9506 28.3397 60.5417 28.0963 60.1183C27.5379 59.1712 27.0583 58.1811 26.6145 57.1765C26.6002 57.1407 26.5859 57.1191 26.5787 57.1048C26.5787 57.0976 26.5716 57.0904 26.5716 57.0904V57.0833C26.5716 57.0833 26.5716 57.0761 26.5644 57.0761C26.5429 57.0259 26.5215 56.9756 26.5 56.9254C26.4499 56.8034 26.3998 56.6743 26.3497 56.5523C26.228 56.2438 26.1063 55.9281 25.9918 55.6195C25.7842 55.0455 25.5909 54.4715 25.4048 53.8903C25.1614 53.1226 24.9466 52.3549 24.7462 51.5871C27.0154 50.762 29.3919 50.231 31.7971 50.023C32.7348 49.944 33.6726 49.901 34.6103 49.9153C34.732 49.9153 34.8465 49.9153 34.9682 49.9225C34.9825 49.9225 34.9897 49.9225 35.004 49.9225C35.3548 49.9297 35.7127 49.944 36.0634 49.9656C36.4142 49.9871 36.7649 50.0158 37.1228 50.0445C37.3161 50.066 37.5094 50.0875 37.7027 50.1091C37.7957 50.1162 37.8959 50.1306 37.989 50.1449C38.0319 50.1521 38.0677 50.1521 38.1107 50.1593C38.1178 50.1593 38.125 50.1593 38.1322 50.1593H38.1393H38.1465C38.1465 50.1593 38.1465 50.1593 38.1536 50.1593C38.1536 50.1593 38.1536 50.1593 38.1608 50.1593H38.168C39.664 50.3674 41.1458 50.6974 42.5989 51.1351C43.0642 51.2786 43.5009 51.4221 43.9375 51.5728C43.8946 51.7306 43.8516 51.8957 43.8087 52.0535C43.1644 54.4141 42.3913 56.6599 41.3319 58.7551Z" fill="#5C6BA0"/>
<path d="M41.1316 9.60577C40.7594 9.11786 40.3585 8.65866 39.929 8.22815C41.3535 8.51515 42.7565 8.90978 44.1166 9.41204C47.6957 10.7394 50.9671 12.7628 53.7445 15.3387C53.4868 15.5755 53.2219 15.8122 52.957 16.0418C52.6922 16.2714 52.4202 16.4939 52.1482 16.7163C52.141 16.7235 52.1267 16.7306 52.1195 16.7378C51.826 16.9746 51.7044 17.0607 51.3464 17.3262C50.1725 18.18 48.9413 18.9549 47.6599 19.6294C47.1016 19.9236 46.5289 20.2034 45.9491 20.4617C45.899 20.2608 45.8417 20.0599 45.7916 19.859C45.1116 17.3764 44.2311 14.9297 43.0357 12.648C42.7422 12.0884 42.4344 11.5359 42.0908 10.9977C41.7973 10.517 41.4752 10.0506 41.1316 9.60577Z" fill="#5C6BA0"/>
<path d="M73.4574 52.5355C73.4495 52.4099 73.4417 52.2842 73.426 52.1586C73.426 52.1193 73.3947 51.8995 73.3869 51.8367C73.3869 51.8131 73.379 51.7896 73.379 51.7817C73.3712 51.7189 73.3555 51.6561 73.3477 51.6011C73.3242 51.4598 73.2929 51.3185 73.2694 51.1771C73.2224 50.9416 73.1597 50.6982 73.097 50.4705C73.0265 50.1956 72.9404 49.9287 72.8542 49.6617C72.7915 49.4733 72.721 49.1121 72.5957 48.9472C72.6505 49.0257 72.674 49.1514 72.5957 48.9786C72.5644 48.9079 72.533 48.8373 72.4939 48.7588C72.4469 48.6488 72.392 48.5468 72.3372 48.4368C72.2197 48.2091 72.1022 47.9814 71.969 47.7616C71.828 47.526 71.687 47.2905 71.5304 47.0549C71.4207 46.8979 71.2797 46.5916 71.123 46.4582C71.1857 46.521 71.217 46.5995 71.1152 46.466C71.076 46.4189 71.0447 46.3718 71.0055 46.3325C70.9194 46.2226 70.8254 46.1205 70.7392 46.0185C70.5825 45.8379 70.4258 45.673 70.2613 45.5002C69.8932 45.1234 69.4937 44.7779 69.0942 44.4481C69.0315 44.401 68.961 44.346 68.8983 44.3068C68.7965 44.2361 68.6947 44.1654 68.5928 44.0948C68.3657 43.9456 68.1385 43.7964 67.9035 43.6629C67.7233 43.5608 67.551 43.4588 67.3708 43.3645C67.2925 43.3253 67.2142 43.286 67.1358 43.2468C67.0262 43.1918 66.9087 43.1368 66.799 43.0819C66.7285 43.0505 66.6266 43.0034 66.6032 42.9955C66.4935 42.9484 66.376 42.9091 66.2663 42.8699C65.8903 42.7286 65.5143 42.6108 65.1305 42.5087C65.1226 42.5087 65.107 42.5008 65.0991 42.5008C64.8093 42.4223 64.5195 42.3595 64.2218 42.3046C64.073 42.2731 63.9241 42.2496 63.7753 42.226C63.7596 42.226 63.744 42.2182 63.7361 42.2182C63.7361 42.2182 63.7361 42.2182 63.7283 42.2182C63.7126 42.2182 63.697 42.2182 63.6735 42.2103C63.0703 42.1475 62.4671 42.1161 61.8639 42.1318C61.5349 42.1397 61.2059 42.1632 60.8769 42.1946C60.8221 42.2025 60.7673 42.2103 60.7046 42.2103C60.5793 42.2339 60.4539 42.2496 60.3286 42.2731C59.7176 42.3831 59.1223 42.5401 58.5347 42.7364C58.3624 42.7914 58.1901 42.8542 58.0256 42.917C57.9629 42.9405 57.8219 43.0034 57.7984 43.0112C57.6104 43.0976 57.4224 43.184 57.2422 43.2703C56.7957 43.498 56.3649 43.7414 55.9576 44.0162C55.7461 44.1576 55.5345 44.3068 55.3309 44.456L55.323 44.4638C55.323 44.4638 55.3152 44.4638 55.3152 44.4717C55.3152 44.4795 55.3074 44.4795 55.2995 44.4795C55.2134 44.5502 55.1272 44.6208 55.0489 44.6915C54.6729 45.0056 54.3125 45.3511 53.9757 45.7122C53.8034 45.9007 53.631 46.0891 53.4665 46.2854C53.4039 46.364 53.3412 46.4425 53.2785 46.521C53.255 46.5524 53.2315 46.5838 53.208 46.6231C52.9182 47.0235 52.644 47.4396 52.4012 47.8715C52.2837 48.0756 52.174 48.2876 52.0644 48.5075C52.0095 48.6253 51.9469 48.7431 51.8999 48.8608C51.892 48.8844 51.8685 48.9394 51.8372 48.9943V49.0022C51.8372 49.01 51.8293 49.0179 51.8293 49.0179C51.8058 49.0728 51.7745 49.1435 51.7745 49.1592C51.751 49.2142 51.7353 49.2613 51.7118 49.3162C51.6727 49.4183 51.6335 49.5282 51.5943 49.6303C51.516 49.858 51.4377 50.0936 51.375 50.3291C51.234 50.8238 51.1243 51.3263 51.046 51.8288C51.046 51.8445 51.0382 51.8681 51.0382 51.9073C51.0382 51.9152 51.0382 51.9152 51.0382 51.923C51.0382 51.923 51.0382 51.923 51.0382 51.9309C51.0225 52.0644 51.0068 52.1979 50.999 52.3313C50.9755 52.5826 50.9598 52.8339 50.9598 53.093C50.9442 53.674 50.9677 54.255 51.0225 54.8282C51.0303 54.9224 51.046 55.0088 51.0538 55.103C51.0538 55.1187 51.0538 55.1344 51.0617 55.1423C51.0695 55.1816 51.0773 55.2208 51.0773 55.2601C51.093 55.3464 51.1008 55.4328 51.1165 55.5113C51.1713 55.8176 51.2262 56.1159 51.2967 56.4143C51.4377 57.0424 51.6178 57.6627 51.8215 58.2752C51.8294 58.2909 51.8294 58.3066 51.8372 58.3223C51.939 58.6285 52.0487 58.9347 52.1662 59.2331C52.221 59.3666 52.2759 59.5079 52.3229 59.6414C52.3229 59.6493 52.3385 59.6728 52.3464 59.7042C52.3464 59.7042 52.3464 59.7042 52.3464 59.7121C52.3464 59.7199 52.3464 59.7121 52.3464 59.7199C52.3464 59.7199 52.3464 59.7278 52.3542 59.7278V59.7356V59.7435V59.7513C52.362 59.7749 52.3777 59.7984 52.3777 59.7984C52.644 60.403 52.926 60.9998 53.2315 61.5887C53.4039 61.9263 53.584 62.2639 53.772 62.5937C53.9679 62.9313 54.1637 63.2768 54.3674 63.6066C54.571 63.9442 54.7825 64.274 54.994 64.6038C55.0802 64.7372 55.1664 64.8707 55.2525 64.9964C55.5972 65.5224 55.9576 66.0406 56.3336 66.5432C56.5294 66.818 56.7331 67.0849 56.9367 67.3519C56.9524 67.3755 56.9681 67.399 56.9837 67.4147C56.9837 67.4147 56.9837 67.4147 56.9916 67.4226L56.9994 67.4304C56.9994 67.4383 57.0072 67.4383 57.0072 67.4461L57.0151 67.454C57.0229 67.4618 57.0229 67.4697 57.0307 67.4775C57.0386 67.4854 57.0386 67.4932 57.0464 67.5011C57.0542 67.5168 57.0621 67.5246 57.0699 67.5325C57.1561 67.6424 57.2422 67.7523 57.3284 67.8623C58.8246 69.7546 60.4461 71.5997 62.1929 73.28C62.3496 73.1309 62.5063 72.9738 62.6629 72.8168C63.7675 71.7175 64.825 70.5712 65.8355 69.3855C66.141 69.0322 66.4386 68.671 66.7285 68.3098C66.893 68.1057 67.0653 67.8937 67.222 67.6895C67.269 67.6346 67.316 67.5718 67.363 67.5168C67.3708 67.5089 67.3787 67.4932 67.3865 67.4854C67.4178 67.4461 67.4492 67.4069 67.4805 67.3598C68.115 66.5275 68.726 65.6716 69.2978 64.7922C69.901 63.8735 70.4729 62.9235 70.9899 61.9577C71.2405 61.4866 71.4834 61.0076 71.7105 60.5208C71.8359 60.2538 71.9534 59.9869 72.0709 59.7199C72.0787 59.7042 72.0865 59.6885 72.0944 59.6728C72.1022 59.6414 72.11 59.6178 72.11 59.6178C72.157 59.5079 72.1962 59.398 72.2432 59.2802C72.627 58.2909 72.9482 57.2701 73.1754 56.2337C73.238 55.9589 73.2929 55.6841 73.332 55.4014C73.3477 55.3229 73.3555 55.2522 73.3712 55.1737C73.3712 55.1187 73.3869 55.0402 73.3947 54.9853C73.4495 54.467 73.4809 53.941 73.4809 53.4227C73.4887 53.1244 73.4809 52.8339 73.4574 52.5355ZM62.7883 56.163C62.6003 56.2023 62.4123 56.2259 62.2164 56.2259C61.9423 56.2259 61.6838 56.1866 61.4331 56.1159C61.0493 56.006 60.6968 55.8097 60.3991 55.5506C59.8038 55.0402 59.4199 54.2707 59.4199 53.4227C59.4199 51.8759 60.6733 50.6196 62.2164 50.6196C62.4906 50.6196 62.7569 50.6589 62.9998 50.7296C63.3836 50.8395 63.7361 51.0358 64.026 51.287C64.3706 51.5854 64.6448 51.9623 64.8171 52.3942C64.9425 52.7082 65.0051 53.0537 65.0051 53.4149C65.0051 54.7733 64.0573 55.8961 62.7883 56.163Z" fill="#FFA000"/>
</svg>
