<svg width="75" height="75" viewBox="0 0 75 75" fill="none" xmlns="http://www.w3.org/2000/svg">
<g clip-path="url(#clip0_84_5703)">
<path d="M37.5742 64.9218C52.5648 64.9218 64.717 52.7695 64.717 37.7789C64.717 22.7883 52.5648 10.6361 37.5742 10.6361C22.5836 10.6361 10.4313 22.7883 10.4313 37.7789C10.4313 52.7695 22.5836 64.9218 37.5742 64.9218Z" fill="#DCEFFF"/>
<path d="M37.5744 12.0648C23.4316 12.0648 11.8601 23.6362 11.8601 37.7791C11.8601 51.922 23.4316 63.4934 37.5744 63.4934C51.7173 63.4934 63.2887 51.922 63.2887 37.7791C63.2887 23.6362 51.7173 12.0648 37.5744 12.0648ZM37.5744 66.3505C21.8601 66.3505 9.00299 53.4934 9.00299 37.7791C9.00299 22.0648 21.8601 9.20764 37.5744 9.20764C53.2887 9.20764 66.1458 22.0648 66.1458 37.7791C66.1458 53.4934 53.2887 66.3505 37.5744 66.3505Z" fill="#C8E1FF"/>
<path d="M37.5744 12.0648C30.5744 12.0648 24.7172 23.7791 24.7172 37.7791C24.7172 51.7791 30.5744 63.4934 37.5744 63.4934C44.5744 63.4934 50.4315 51.7791 50.4315 37.7791C50.4315 23.7791 44.5744 12.0648 37.5744 12.0648ZM37.5744 66.3505C28.7172 66.3505 21.8601 53.7791 21.8601 37.7791C21.8601 21.7791 28.7172 9.20764 37.5744 9.20764C46.4315 9.20764 53.2887 21.7791 53.2887 37.7791C53.2887 53.7791 46.4315 66.3505 37.5744 66.3505Z" fill="#C8E1FF"/>
<path d="M10.5743 36.3504H64.7171V39.2076H10.5743V36.3504ZM60.4314 52.0647H14.7171C13.86 52.0647 13.2885 51.4933 13.2885 50.6361C13.2885 49.779 13.86 49.2076 14.7171 49.2076H60.4314C61.2885 49.2076 61.86 49.779 61.86 50.6361C61.86 51.4933 61.2885 52.0647 60.4314 52.0647ZM60.4314 26.3504H14.7171C13.86 26.3504 13.2885 25.779 13.2885 24.9219C13.2885 24.0647 13.86 23.4933 14.7171 23.4933H60.4314C61.2885 23.4933 61.86 24.0647 61.86 24.9219C61.86 25.779 61.2885 26.3504 60.4314 26.3504Z" fill="#C8E1FF"/>
<path d="M39.0028 10.7792H36.1457V64.922H39.0028V10.7792Z" fill="#C8E1FF"/>
<path d="M20.4813 43.955C21.2051 44.0502 22.2717 44.1454 23.7765 44.1454C26.2908 44.1454 28.3479 43.6121 29.7003 42.4883C30.9384 41.4407 31.8336 39.7454 31.8336 37.2883C31.8336 35.0216 30.9955 33.4407 29.6622 32.4502C28.4241 31.5169 26.8432 31.0788 24.4051 31.0788C22.9384 31.0788 21.5479 31.174 20.4813 31.3454V43.955ZM23.3955 33.4216C23.6432 33.3645 24.0622 33.3073 24.7098 33.3073C27.2051 33.3073 28.767 34.7169 28.7479 37.3835C28.7479 40.4502 27.0336 41.8978 24.4051 41.8788C24.0432 41.8788 23.6432 41.8788 23.3955 41.8216V33.4216ZM36.4105 44.0121V40.1454C36.4105 38.0502 36.3725 36.2407 36.2963 34.5454L36.3534 34.5264C36.982 36.0311 37.8201 37.6883 38.582 39.0597L41.3248 44.0121H44.3725V31.174H41.7058V34.9264C41.7058 36.8502 41.7629 38.5835 41.9534 40.2788H41.8963C41.3248 38.8311 40.5629 37.2311 39.801 35.8788L37.1344 31.174H33.7439V44.0121H36.4105ZM46.3997 43.4216C47.1235 43.8216 48.5711 44.2026 50.0378 44.2026C53.5616 44.2026 55.2188 42.374 55.2188 40.2216C55.2188 38.4121 54.1521 37.2311 51.8854 36.393C50.2283 35.7645 49.5045 35.4026 49.5045 34.5835C49.5045 33.9169 50.114 33.3454 51.3711 33.3454C52.6283 33.3454 53.5426 33.7073 54.0569 33.955L54.7045 31.6121C53.9426 31.2692 52.8759 30.9645 51.4283 30.9645C48.3997 30.9645 46.5711 32.6407 46.5711 34.8311C46.5711 36.6978 47.9616 37.8788 50.095 38.6216C51.6378 39.174 52.2473 39.6311 52.2473 40.4311C52.2473 41.2692 51.5426 41.8216 50.2092 41.8216C48.9711 41.8216 47.7711 41.4216 46.9902 41.0216L46.3997 43.4216Z" fill="#6671D8"/>
<path d="M62.0952 73.1905C69.3275 73.1905 75.1905 67.3275 75.1905 60.0952C75.1905 52.8629 69.3275 47 62.0952 47C54.8629 47 49 52.8629 49 60.0952C49 67.3275 54.8629 73.1905 62.0952 73.1905Z" fill="#8BC34A"/>
<path d="M58.3039 57.1724H56.7155C56.3764 57.1724 56.1013 57.4476 56.1013 57.7866C56.1013 58.1257 56.3764 58.4008 56.7155 58.4008H60.4009V54.7155C60.4009 54.3764 60.1257 54.1012 59.7866 54.1012C59.4476 54.1012 59.1724 54.3764 59.1724 54.7155V56.3039L56.0485 53.1799C55.8089 52.94 55.4195 52.94 55.1799 53.1799C54.9401 53.4198 54.9401 53.8086 55.1799 54.0484L58.3039 57.1724Z" fill="white"/>
<path d="M65.6961 57.1724H67.2845C67.6236 57.1724 67.8987 57.4476 67.8987 57.7866C67.8987 58.1257 67.6236 58.4008 67.2845 58.4008H63.5991V54.7155C63.5991 54.3764 63.8743 54.1012 64.2134 54.1012C64.5524 54.1012 64.8276 54.3764 64.8276 54.7155V56.3039L67.9515 53.1799C68.1911 52.94 68.5805 52.94 68.8201 53.1799C69.0599 53.4198 69.0599 53.8086 68.8201 54.0484L65.6961 57.1724Z" fill="white"/>
<path d="M58.3039 62.8276H56.7155C56.3764 62.8276 56.1013 62.5524 56.1013 62.2134C56.1013 61.8743 56.3764 61.5992 56.7155 61.5992H60.4009V65.2845C60.4009 65.6236 60.1257 65.8988 59.7866 65.8988C59.4476 65.8988 59.1724 65.6236 59.1724 65.2845V63.6961L56.0485 66.8201C55.8089 67.06 55.4195 67.06 55.1799 66.8201C54.9401 66.5802 54.9401 66.1914 55.1799 65.9516L58.3039 62.8276Z" fill="white"/>
<path d="M65.6961 62.8276H67.2845C67.6236 62.8276 67.8987 62.5524 67.8987 62.2134C67.8987 61.8743 67.6236 61.5992 67.2845 61.5992H63.5991V65.2845C63.5991 65.6236 63.8743 65.8988 64.2134 65.8988C64.5524 65.8988 64.8276 65.6236 64.8276 65.2845V63.6961L67.9515 66.8201C68.1911 67.06 68.5805 67.06 68.8201 66.8201C69.0599 66.5802 69.0599 66.1914 68.8201 65.9516L65.6961 62.8276Z" fill="white"/>
</g>
<defs>
<clipPath id="clip0_84_5703">
<rect width="75" height="75" fill="white"/>
</clipPath>
</defs>
</svg>
