<svg width="75" height="75" viewBox="0 0 75 75" fill="none" xmlns="http://www.w3.org/2000/svg">
<path d="M8.60416 25.382H65.747V59.5989C65.747 61.5712 64.148 63.1703 62.1756 63.1703H12.1756C10.2031 63.1703 8.60416 61.5712 8.60416 59.5989V25.382Z" fill="#DCEFFF"/>
<path d="M8.60416 25.3819H65.747V14.6676C65.747 12.6951 64.148 11.0962 62.1756 11.0962H12.1756C10.2031 11.0962 8.60416 12.6951 8.60416 14.6676V25.3819Z" fill="#5C6BA0"/>
<path d="M17.1511 21.8102C19.1235 21.8102 20.7225 20.2112 20.7225 18.2388C20.7225 16.2663 19.1235 14.6674 17.1511 14.6674C15.1786 14.6674 13.5797 16.2663 13.5797 18.2388C13.5797 20.2112 15.1786 21.8102 17.1511 21.8102Z" fill="#8A95BC"/>
<path d="M26.6963 21.8102C28.6688 21.8102 30.2677 20.2112 30.2677 18.2388C30.2677 16.2663 28.6688 14.6674 26.6963 14.6674C24.7239 14.6674 23.1249 16.2663 23.1249 18.2388C23.1249 20.2112 24.7239 21.8102 26.6963 21.8102Z" fill="#8A95BC"/>
<path d="M19.4642 48.0401C20.4927 48.0401 21.1784 47.2972 21.1784 46.2877C21.1784 45.2401 20.4927 44.5163 19.4832 44.5163C18.4737 44.5163 17.7689 45.2591 17.7689 46.2877C17.7689 47.2972 18.4737 48.0401 19.4642 48.0401ZM29.5739 45.4687C29.1358 45.6401 28.6025 45.7544 27.9168 45.7544C26.5073 45.7544 25.3644 44.8591 25.3644 43.1449C25.3454 41.621 26.3358 40.5353 27.8596 40.5353C28.6215 40.5353 29.1358 40.6687 29.4787 40.821L29.9358 38.6687C29.3263 38.4401 28.4882 38.3068 27.7263 38.3068C24.2596 38.3068 22.393 40.5353 22.393 43.2591C22.393 46.1925 24.3168 48.0211 27.3263 48.0211C28.4311 48.0211 29.4025 47.8306 29.9168 47.602L29.5739 45.4687ZM35.7536 38.3068C32.7631 38.3068 30.7821 40.2306 30.7821 43.2401C30.7821 46.2496 32.8774 48.0401 35.6012 48.0401C38.0964 48.0401 40.5155 46.4782 40.5155 43.0687C40.5155 40.2687 38.6107 38.3068 35.7536 38.3068ZM35.6774 40.3639C36.9917 40.3639 37.525 41.7734 37.525 43.1639C37.525 44.8401 36.8012 45.9639 35.6774 45.9639C34.4393 45.9639 33.7726 44.7639 33.7726 43.1639C33.7726 41.7925 34.2869 40.3639 35.6774 40.3639ZM42.3088 47.8306H45.1278V42.402C45.1278 42.1734 45.1469 41.9068 45.2421 41.6782C45.4136 41.202 45.8517 40.6306 46.5945 40.6306C47.5088 40.6306 47.9279 41.4306 47.9279 42.6115V47.8306H50.7469V42.383C50.7469 42.1544 50.785 41.8496 50.8612 41.6401C51.0517 41.0877 51.5279 40.6306 52.1945 40.6306C53.1279 40.6306 53.5659 41.4115 53.5659 42.7639V47.8306H56.385V42.3449C56.385 39.5639 55.0326 38.3068 53.2421 38.3068C52.5564 38.3068 51.985 38.4591 51.4707 38.7639C51.0326 39.0306 50.6136 39.4115 50.2707 39.8877H50.2326C49.8326 38.9163 48.8802 38.3068 47.6802 38.3068C46.0802 38.3068 45.2612 39.183 44.8612 39.7734H44.804L44.6707 38.5163H42.2326C42.2707 39.3353 42.3088 40.3258 42.3088 41.4877V47.8306Z" fill="#80AADF"/>
<path d="M45 58.1705C45 68.9819 59.881 74.5238 59.881 74.5238C59.881 74.5238 74.7619 69.0727 74.7619 58.1705C74.7619 53.7187 74.7619 42.7256 74.7619 42.7256C71.1347 42.7256 59.881 40 59.881 40C59.881 40 48.6272 42.7256 45 42.7256C45 42.7256 45 53.7187 45 58.1705Z" fill="#8BC34A"/>
<path d="M59.8808 47.1428C57.5891 47.1428 55.7141 49.0561 55.7141 51.3945V53.0952H57.3808V51.3945C57.3808 49.9914 58.5058 48.8435 59.8808 48.8435C61.2558 48.8435 62.3808 49.9914 62.3808 51.3945V53.0952H64.0474V51.3945C64.0474 49.0561 62.1724 47.1428 59.8808 47.1428Z" fill="#B9E289"/>
<path d="M64.8879 62.619H54.8738C54.0265 62.619 53.3333 61.9597 53.3333 61.1538V54.5604C53.3333 53.7545 54.0265 53.0952 54.8738 53.0952H64.8879C65.7352 53.0952 66.4285 53.7545 66.4285 54.5604V61.1538C66.4285 61.9597 65.7352 62.619 64.8879 62.619Z" fill="#4082BE"/>
</svg>
