<svg width="75" height="75" viewBox="0 0 75 75" fill="none" xmlns="http://www.w3.org/2000/svg">
<path d="M8.60416 25.382H65.747V59.5989C65.747 61.5712 64.148 63.1703 62.1756 63.1703H12.1756C10.2031 63.1703 8.60416 61.5712 8.60416 59.5989V25.382Z" fill="#DCEFFF"/>
<path d="M8.60416 25.3819H65.747V14.6676C65.747 12.6951 64.148 11.0962 62.1756 11.0962H12.1756C10.2031 11.0962 8.60416 12.6951 8.60416 14.6676V25.3819Z" fill="#5C6BA0"/>
<path d="M17.1511 21.8102C19.1235 21.8102 20.7225 20.2112 20.7225 18.2388C20.7225 16.2663 19.1235 14.6674 17.1511 14.6674C15.1786 14.6674 13.5796 16.2663 13.5796 18.2388C13.5796 20.2112 15.1786 21.8102 17.1511 21.8102Z" fill="#8A95BC"/>
<path d="M26.6963 21.8102C28.6688 21.8102 30.2677 20.2112 30.2677 18.2388C30.2677 16.2663 28.6688 14.6674 26.6963 14.6674C24.7239 14.6674 23.1249 16.2663 23.1249 18.2388C23.1249 20.2112 24.7239 21.8102 26.6963 21.8102Z" fill="#8A95BC"/>
<path d="M19.4642 48.0401C20.4927 48.0401 21.1784 47.2972 21.1784 46.2877C21.1784 45.2401 20.4927 44.5163 19.4832 44.5163C18.4737 44.5163 17.7689 45.2591 17.7689 46.2877C17.7689 47.2972 18.4737 48.0401 19.4642 48.0401ZM29.5739 45.4687C29.1358 45.6401 28.6025 45.7544 27.9168 45.7544C26.5073 45.7544 25.3644 44.8591 25.3644 43.1449C25.3454 41.621 26.3358 40.5353 27.8596 40.5353C28.6215 40.5353 29.1358 40.6687 29.4787 40.821L29.9358 38.6687C29.3263 38.4401 28.4882 38.3068 27.7263 38.3068C24.2596 38.3068 22.393 40.5353 22.393 43.2591C22.393 46.1925 24.3168 48.0211 27.3263 48.0211C28.4311 48.0211 29.4025 47.8306 29.9168 47.602L29.5739 45.4687ZM35.7536 38.3068C32.7631 38.3068 30.7821 40.2306 30.7821 43.2401C30.7821 46.2496 32.8774 48.0401 35.6012 48.0401C38.0964 48.0401 40.5155 46.4782 40.5155 43.0687C40.5155 40.2687 38.6107 38.3068 35.7536 38.3068ZM35.6774 40.3639C36.9917 40.3639 37.525 41.7734 37.525 43.1639C37.525 44.8401 36.8012 45.9639 35.6774 45.9639C34.4393 45.9639 33.7726 44.7639 33.7726 43.1639C33.7726 41.7925 34.2869 40.3639 35.6774 40.3639ZM42.3088 47.8306H45.1278V42.402C45.1278 42.1734 45.1469 41.9068 45.2421 41.6782C45.4136 41.202 45.8517 40.6306 46.5945 40.6306C47.5088 40.6306 47.9279 41.4306 47.9279 42.6115V47.8306H50.7469V42.383C50.7469 42.1544 50.785 41.8496 50.8612 41.6401C51.0517 41.0877 51.5279 40.6306 52.1945 40.6306C53.1279 40.6306 53.5659 41.4115 53.5659 42.7639V47.8306H56.385V42.3449C56.385 39.5639 55.0326 38.3068 53.2421 38.3068C52.5564 38.3068 51.985 38.4591 51.4707 38.7639C51.0326 39.0306 50.6136 39.4115 50.2707 39.8877H50.2326C49.8326 38.9163 48.8802 38.3068 47.6802 38.3068C46.0802 38.3068 45.2612 39.183 44.8612 39.7734H44.804L44.6707 38.5163H42.2326C42.2707 39.3353 42.3088 40.3258 42.3088 41.4877V47.8306Z" fill="#80AADF"/>
<path d="M51.5 50.9361L51.8172 56.1894C52.1539 61.7577 54.8622 66.8545 59.2459 70.1722L61 71.5L62.7541 70.1722C67.1378 66.8552 69.8461 61.7583 70.1828 56.1894L70.5 50.9361L61.0006 48.5L51.5 50.9361Z" fill="#8BC34A"/>
<path d="M71.8028 47.7432L61.1495 45.0192C61.0515 44.9936 60.9498 44.9936 60.8518 45.0192L50.1972 47.7432C48.8411 48.0893 47.9192 49.3741 48.0056 50.7989L48.3645 56.7273C48.7498 63.0851 51.8491 68.9029 56.8686 72.6904L59.0553 74.3414C59.6366 74.78 60.3183 75 61 75C61.6817 75 62.3634 74.78 62.9447 74.3414L65.1314 72.6904C70.1497 68.9029 73.2502 63.0844 73.6355 56.7273L73.9944 50.7989C74.0808 49.3748 73.1589 48.0893 71.8028 47.7432ZM71.1591 56.308C70.8087 62.0815 67.9936 67.3656 63.436 70.8044L61.3644 72.3686C61.256 72.4504 61.128 72.491 61 72.491C60.872 72.491 60.744 72.4504 60.6356 72.3686L58.564 70.8044C54.0064 67.3656 51.1913 62.0815 50.8409 56.308L50.501 50.692C50.4832 50.3921 50.6774 50.1209 50.9634 50.0478L60.8518 47.5188C60.9498 47.4932 61.0515 47.4932 61.1495 47.5188L71.0366 50.0478C71.3226 50.1209 71.5168 50.3921 71.499 50.692L71.1591 56.308Z" fill="#8BC34A"/>
</svg>
