<svg width="75" height="75" viewBox="0 0 75 75" fill="none" xmlns="http://www.w3.org/2000/svg">
<g clip-path="url(#clip0_84_5796)">
<path d="M59.773 66.0426H14.0587C10.9158 66.0426 8.34439 63.4712 8.34439 60.3283V31.6616C8.34439 29.8045 9.20153 28.0902 10.773 26.9474L36.8414 8.89832L63.0587 26.9474C64.6301 27.9474 65.4873 29.8045 65.4873 31.6616V60.3283C65.4873 63.4712 62.9158 66.0426 59.773 66.0426Z" fill="#6671D8"/>
<path d="M54.0588 23.1858H19.7731V54.6144H54.0588V23.1858Z" fill="white"/>
<path d="M59.773 66.0427H14.0587C10.9158 66.0427 8.34439 63.4712 8.34439 60.3284V31.757L36.9158 50.3284L65.4873 31.757V60.3284C65.4873 63.4712 62.9158 66.0427 59.773 66.0427Z" fill="#78CAF9"/>
<path d="M24.0583 36.0429H41.2012V38.9H24.0583V36.0429ZM24.0583 30.3286H49.7726V33.1858H24.0583V30.3286Z" fill="#2196F3"/>
<path fill-rule="evenodd" clip-rule="evenodd" d="M41.008 66.5799C40.7711 61.2256 45.8192 57.7154 49.6427 59.4222C49.3378 55.2852 52.0688 52.707 55.8263 52.0912C59.0725 51.5588 61.8045 53.4006 63.2355 56.4934C66.4081 52.4747 73.673 56.8368 70.685 61.9958C76.0386 62.0296 77.5817 72.7539 68.4278 73H47.4587C43.8959 73 41.008 69.7072 41.008 66.7642" fill="#DCEFFF"/>
<path fill-rule="evenodd" clip-rule="evenodd" d="M56.2662 62L60.2096 62L60.2096 68.5475L63.4761 68.5475L58.238 75.0951L52.9999 68.5475L56.2662 68.5475L56.2662 62Z" fill="#8BC34A"/>
</g>
<defs>
<clipPath id="clip0_84_5796">
<rect width="75" height="75" fill="white"/>
</clipPath>
</defs>
</svg>
