<svg width="75" height="75" viewBox="0 0 75 75" fill="none" xmlns="http://www.w3.org/2000/svg">
<path d="M20.2857 39.2143C20.2904 39.5574 20.213 39.8966 20.0601 40.2037C19.9072 40.5109 19.6832 40.7771 19.4066 40.9802C18.876 41.3796 18.4757 41.9273 18.2564 42.5542C18.037 43.1811 18.0085 43.8589 18.1744 44.502C18.3222 45.0738 18.622 45.595 19.0421 46.0102C19.4621 46.4254 19.9868 46.7191 20.5603 46.8602C21.0514 46.9874 21.565 47.0004 22.0619 46.8982C22.5588 46.796 23.0256 46.5814 23.4267 46.2707C23.8277 45.9601 24.1523 45.5618 24.3755 45.1062C24.5987 44.6507 24.7146 44.1501 24.7143 43.6429C24.7167 43.1257 24.5967 42.6154 24.3641 42.1536C24.1314 41.6917 23.7927 41.2915 23.3757 40.9857C23.1071 40.7944 22.8877 40.5421 22.7355 40.2496C22.5833 39.9571 22.5026 39.6326 22.5 39.3029C22.4915 38.8602 22.5709 38.4202 22.7337 38.0084C22.8965 37.5966 23.1395 37.2213 23.4484 36.9041C23.7574 36.5869 24.1262 36.3342 24.5336 36.1606C24.9409 35.987 25.3787 35.896 25.8214 35.8929H36.8929V24.8214C36.8929 24.5278 36.7762 24.2462 36.5686 24.0386C36.361 23.8309 36.0793 23.7143 35.7857 23.7143C35.2771 24.3922 34.6197 24.9442 33.8641 25.3279C33.1085 25.7116 32.2749 25.9167 31.4276 25.9274C30.5802 25.9381 29.7417 25.7541 28.9766 25.3896C28.2116 25.0251 27.5404 24.4898 27.0149 23.825C26.4924 23.1602 26.1284 22.3849 25.9506 21.5582C25.7727 20.7316 25.7857 19.8752 25.9886 19.0543C26.2218 18.0814 26.7176 17.1912 27.422 16.4808C28.1264 15.7703 29.0123 15.2669 29.9832 15.0254C31.0448 14.7548 32.1629 14.8053 33.1958 15.1705C34.2288 15.5357 35.1301 16.1992 35.7857 17.077C36.0797 17.0749 36.3609 16.9569 36.5683 16.7485C36.7756 16.5401 36.8923 16.2583 36.8929 15.9643V6H11.4286C10.254 6 9.12762 6.46658 8.2971 7.2971C7.46658 8.12762 7 9.25404 7 10.4286V35.8929H16.9643C17.8452 35.8929 18.69 36.2428 19.3129 36.8657C19.9358 37.4886 20.2857 38.3334 20.2857 39.2143Z" fill="#DCEFFF"/>
<path d="M64.5712 6H39.1069V15.9643C39.1069 16.8452 38.757 17.69 38.1341 18.3129C37.5112 18.9358 36.6664 19.2857 35.7855 19.2857C35.4424 19.2904 35.1032 19.213 34.796 19.0601C34.4889 18.9072 34.2227 18.6832 34.0196 18.4066C33.6202 17.876 33.0725 17.4757 32.4456 17.2564C31.8187 17.037 31.1409 17.0085 30.4978 17.1744C29.9259 17.3222 29.4048 17.622 28.9896 18.0421C28.5744 18.4621 28.2807 18.9868 28.1396 19.5603C28.0124 20.0514 27.9994 20.565 28.1016 21.0619C28.2038 21.5588 28.4184 22.0256 28.729 22.4267C29.0396 22.8277 29.438 23.1523 29.8935 23.3755C30.349 23.5987 30.8496 23.7146 31.3569 23.7143C31.874 23.7167 32.3844 23.5967 32.8462 23.3641C33.308 23.1314 33.7082 22.7927 34.0141 22.3757C34.2054 22.1071 34.4576 21.8877 34.7502 21.7355C35.0427 21.5833 35.3671 21.5026 35.6969 21.5C36.1396 21.4915 36.5796 21.5709 36.9914 21.7337C37.4031 21.8965 37.7785 22.1395 38.0957 22.4484C38.4129 22.7574 38.6656 23.1262 38.8392 23.5336C39.0128 23.9409 39.1038 24.3787 39.1069 24.8214V35.8929H50.1783C50.472 35.8929 50.7536 35.7762 50.9612 35.5686C51.1688 35.361 51.2855 35.0793 51.2855 34.7857C50.6076 34.2771 50.0556 33.6197 49.6719 32.8641C49.2882 32.1085 49.0831 31.2749 49.0724 30.4276C49.0617 29.5802 49.2457 28.7417 49.6102 27.9766C49.9747 27.2116 50.51 26.5404 51.1748 26.0149C51.8398 25.4927 52.615 25.1289 53.4416 24.951C54.2682 24.7732 55.1245 24.7861 55.9454 24.9886C56.9183 25.2218 57.8086 25.7176 58.519 26.422C59.2295 27.1264 59.7329 28.0123 59.9743 28.9832C60.2456 30.0443 60.1959 31.162 59.8317 32.1949C59.4675 33.2278 58.8051 34.1294 57.9283 34.7857C57.9304 35.0787 58.0477 35.3591 58.2549 35.5663C58.462 35.7735 58.7425 35.8908 59.0355 35.8929H68.9998V10.4286C68.9998 9.25404 68.5332 8.12762 67.7027 7.2971C66.8721 6.46658 65.7457 6 64.5712 6Z" fill="#5797F8"/>
<path d="M11.4286 68H36.8929V58.0357C36.8929 57.1548 37.2428 56.31 37.8657 55.6871C38.4886 55.0642 39.3334 54.7143 40.2143 54.7143C40.5574 54.7096 40.8966 54.7869 41.2037 54.9398C41.5109 55.0927 41.7771 55.3168 41.9802 55.5933C42.3796 56.1239 42.9274 56.5241 43.5543 56.7434C44.1811 56.9627 44.8589 56.9913 45.502 56.8256C46.0738 56.6778 46.595 56.378 47.0102 55.9579C47.4254 55.5378 47.7191 55.0132 47.8602 54.4397C47.9874 53.9486 48.0004 53.4349 47.8982 52.9381C47.796 52.4412 47.5814 51.9743 47.2707 51.5733C46.9601 51.1722 46.5618 50.8477 46.1062 50.6245C45.6507 50.4013 45.1501 50.2854 44.6429 50.2857C44.1257 50.2833 43.6154 50.4033 43.1536 50.6359C42.6917 50.8686 42.2915 51.2072 41.9857 51.6242C41.7944 51.8928 41.5421 52.1123 41.2496 52.2645C40.9571 52.4167 40.6326 52.4974 40.3029 52.5C39.8602 52.5085 39.4202 52.429 39.0084 52.2662C38.5966 52.1034 38.2213 51.8605 37.9041 51.5516C37.5869 51.2426 37.3342 50.8738 37.1606 50.4664C36.987 50.0591 36.896 49.6213 36.8929 49.1785V38.1071H25.8214C25.5278 38.1071 25.2462 38.2238 25.0386 38.4314C24.8309 38.639 24.7143 38.9206 24.7143 39.2143C25.6438 39.9114 26.3303 40.8833 26.6768 41.9923C27.0232 43.1013 27.0119 44.2911 26.6445 45.3934C26.2771 46.4956 25.5722 47.4543 24.6296 48.1336C23.6871 48.813 22.5547 49.1785 21.3929 49.1785C20.9405 49.1779 20.4898 49.1244 20.0499 49.0191C19.077 48.786 18.1868 48.2902 17.4763 47.5858C16.7659 46.8814 16.2625 45.9954 16.021 45.0245C15.7492 43.9613 15.7995 42.8414 16.1656 41.8068C16.5317 40.7723 17.1969 39.8699 18.077 39.2143C18.0749 38.9203 17.9569 38.639 17.7485 38.4317C17.5401 38.2243 17.2583 38.1077 16.9643 38.1071H7V63.5714C7 64.7459 7.46658 65.8724 8.2971 66.7029C9.12762 67.5334 10.254 68 11.4286 68Z" fill="#DCEFFF"/>
<path d="M55.7142 34.7857C55.7095 34.4426 55.7869 34.1034 55.9398 33.7962C56.0927 33.489 56.3167 33.2229 56.5933 33.0198C57.1239 32.6204 57.5242 32.0726 57.7436 31.4458C57.9629 30.8189 57.9914 30.141 57.8255 29.4979C57.6777 28.9261 57.3779 28.405 56.9578 27.9898C56.5378 27.5746 56.0132 27.2808 55.4396 27.1397C54.9486 27.0126 54.4349 26.9996 53.938 27.1018C53.4412 27.204 52.9743 27.4186 52.5732 27.7292C52.1722 28.0398 51.8476 28.4382 51.6244 28.8937C51.4012 29.3492 51.2853 29.8498 51.2856 30.3571C51.2832 30.8742 51.4032 31.3845 51.6359 31.8464C51.8685 32.3082 52.2072 32.7084 52.6242 33.0142C52.8928 33.2055 53.1122 33.4578 53.2644 33.7503C53.4167 34.0429 53.4974 34.3673 53.4999 34.6971C53.5084 35.1398 53.429 35.5798 53.2662 35.9916C53.1034 36.4033 52.8605 36.7787 52.5515 37.0959C52.2426 37.4131 51.8737 37.6658 51.4664 37.8394C51.059 38.0129 50.6213 38.1039 50.1785 38.1071H39.1071V49.1785C39.1071 49.4722 39.2237 49.7538 39.4313 49.9614C39.639 50.169 39.9206 50.2857 40.2142 50.2857C40.7228 49.6078 41.3802 49.0557 42.1358 48.672C42.8914 48.2883 43.725 48.0832 44.5724 48.0725C45.4197 48.0618 46.2583 48.2458 47.0233 48.6103C47.7883 48.9748 48.4595 49.5101 48.985 50.1749C49.5075 50.8398 49.8715 51.615 50.0494 52.4417C50.2272 53.2684 50.2142 54.1247 50.0113 54.9456C49.7782 55.9185 49.2824 56.8087 48.578 57.5192C47.8736 58.2296 46.9876 58.733 46.0168 58.9745C44.9556 59.2457 43.8379 59.1961 42.8051 58.8319C41.7722 58.4677 40.8705 57.8053 40.2142 56.9285C39.9212 56.9305 39.6408 57.0478 39.4336 57.255C39.2264 57.4622 39.1091 57.7427 39.1071 58.0357V67.9999H64.5714C65.7459 67.9999 66.8723 67.5334 67.7028 66.7028C68.5333 65.8723 68.9999 64.7459 68.9999 63.5714V38.1071H59.0356C58.1547 38.1071 57.3099 37.7572 56.687 37.1343C56.0641 36.5114 55.7142 35.6666 55.7142 34.7857Z" fill="#DCEFFF"/>
</svg>
