<svg width="75" height="75" viewBox="0 0 75 75" fill="none" xmlns="http://www.w3.org/2000/svg">
<rect x="5" y="37" width="64" height="17" fill="#8A95BC"/>
<path fill-rule="evenodd" clip-rule="evenodd" d="M65.635 15.0243H50.4926V10.2097C50.4926 8.43733 48.9858 7 47.1276 7H26.8724C25.0142 7 23.5074 8.43733 23.5074 10.2097V15.0243H8.36498C6.50684 15.0243 5 16.4617 5 18.2341V40.7416C5 42.5147 6.50684 43.9513 8.36498 43.9513H65.635C67.4932 43.9513 69 42.5147 69 40.7416V18.2341C69 16.4617 67.4932 15.0243 65.635 15.0243ZM47.1276 15.0243H26.8724V10.2097H47.1276V15.0243ZM42.0802 47.1611V49.5372C42.0802 50.8836 40.9353 51.9757 39.5237 51.9757H34.4763C33.064 51.9757 31.9198 50.8836 31.9198 49.5372V47.1611H8.36498C7.13262 47.1611 5.99342 46.8219 5 46.2704V56.7903C5 58.5627 6.50684 60 8.36498 60H65.635C67.4932 60 69 58.5627 69 56.7903V46.2704C68.0066 46.8219 66.8674 47.1611 65.635 47.1611H42.0802Z" fill="#5C6BA0"/>
<rect x="32" y="41" width="10" height="11" rx="2" fill="#8BC34A"/>
<path d="M61.43 74.7632C68.6623 74.7632 74.5252 68.9003 74.5252 61.668C74.5252 54.4357 68.6623 48.5728 61.43 48.5728C54.1977 48.5728 48.3347 54.4357 48.3347 61.668C48.3347 68.9003 54.1977 74.7632 61.43 74.7632Z" fill="#5797F8"/>
<path d="M64.068 61.6679C64.068 63.1453 62.9072 64.3061 61.4299 64.3061C59.9525 64.3061 58.7917 63.1453 58.7917 61.6679C58.7917 60.1906 59.9525 59.0297 61.4299 59.0297C62.9072 59.0297 64.068 60.1906 64.068 61.6679ZM67.1811 62.3011C67.1811 62.0901 67.2338 61.879 67.2338 61.6679C67.2338 61.4569 67.2338 61.2458 67.1811 61.0347L69.1861 59.6629C69.3443 59.5573 69.3972 59.2935 69.2916 59.1353L67.656 56.3389C67.5504 56.1806 67.3393 56.075 67.1282 56.1806L64.965 57.1303C64.5956 56.8136 64.1736 56.6027 63.6987 56.3916L63.4876 54.1756C63.4876 53.9645 63.2766 53.8062 63.0655 53.8062H59.7414C59.5304 53.8062 59.372 53.9645 59.3193 54.1756L59.1082 56.3916C58.6334 56.6027 58.2641 56.8136 57.8419 57.1303L55.7314 56.1806C55.5204 56.1278 55.3093 56.1806 55.2037 56.3389L53.5681 59.1353C53.4625 59.2935 53.5154 59.5573 53.6736 59.6629L55.6786 61.0347C55.6258 61.1931 55.6258 61.4569 55.6258 61.6679C55.6258 61.879 55.6258 62.0901 55.6786 62.3011L53.6736 63.6729C53.5154 63.7784 53.4625 64.0423 53.5681 64.2006L55.2037 66.997C55.3093 67.1553 55.5204 67.2609 55.7314 67.1553L57.8947 66.2056C58.2641 66.5222 58.6861 66.7332 59.1082 66.9442L59.3193 69.1603C59.3193 69.3714 59.5304 69.5297 59.7414 69.5297H63.0655C63.2766 69.5297 63.4349 69.3714 63.4876 69.1603L63.6987 66.9442C64.1736 66.7332 64.5956 66.4694 64.965 66.2056L67.0755 67.1553C67.2866 67.2081 67.4976 67.1553 67.6031 66.997L69.2388 64.2006C69.3443 64.0423 69.2916 63.7784 69.1334 63.6729L67.1811 62.3011Z" fill="white"/>
</svg>
