<svg width="75" height="75" viewBox="0 0 75 75" fill="none" xmlns="http://www.w3.org/2000/svg">
<g clip-path="url(#clip0_84_6106)">
<rect width="2.5" height="17" transform="matrix(1 0 0 -1 18 23)" fill="#818EBA"/>
<rect x="57" y="6" width="2.5" height="10" fill="#818EBA"/>
<rect width="2.5" height="41" transform="matrix(-4.37114e-08 1 1 4.37114e-08 18 6)" fill="#818EBA"/>
<path d="M62.2732 14L58.6366 17.6367L55.0001 14L62.2732 14Z" fill="#818EBA"/>
<path d="M73.4148 36.5254V44.974C73.4148 46.8424 71.9124 48.3453 70.0444 48.3453H46.3705C44.5025 48.3453 43 46.8424 43 44.974V36.5254H73.4148Z" fill="#5C6BA0"/>
<path d="M43 36.5258C43 38.3943 44.5005 39.8971 46.366 39.8971H70.0489C71.9143 39.8971 73.4148 38.3943 73.4148 36.5258L70.9005 26.3713C70.6977 24.6248 69.3595 23 67.494 23H48.9208C47.0554 23 45.7982 24.4623 45.5549 26.3713L43 36.5258Z" fill="#818EBA"/>
<path d="M48.921 42.4556C49.8537 42.4556 50.6242 43.2274 50.6242 44.1615C50.6242 45.0958 49.8537 45.8675 48.921 45.8675C47.9883 45.8675 47.2178 45.0958 47.2178 44.1615C47.2178 43.2274 47.9883 42.4556 48.921 42.4556Z" fill="#96D74C"/>
<path d="M34.4148 36.5254V44.974C34.4148 46.8424 32.9124 48.3453 31.0444 48.3453H7.37048C5.5025 48.3453 4 46.8424 4 44.974V36.5254H34.4148Z" fill="#5C6BA0"/>
<path d="M4 36.5258C4 38.3943 5.50048 39.8971 7.36595 39.8971H31.0489C32.9143 39.8971 34.4148 38.3943 34.4148 36.5258L31.9005 26.3713C31.6977 24.6248 30.3595 23 28.494 23H9.92084C8.05536 23 6.79822 24.4623 6.55488 26.3713L4 36.5258Z" fill="#818EBA"/>
<path d="M9.92099 42.4556C10.8537 42.4556 11.6242 43.2274 11.6242 44.1615C11.6242 45.0958 10.8537 45.8675 9.92099 45.8675C8.98825 45.8675 8.21777 45.0958 8.21777 44.1615C8.21777 43.2274 8.98825 42.4556 9.92099 42.4556Z" fill="#96D74C"/>
<path d="M62.0952 71.1905C69.3275 71.1905 75.1905 65.3275 75.1905 58.0952C75.1905 50.8629 69.3275 45 62.0952 45C54.8629 45 49 50.8629 49 58.0952C49 65.3275 54.8629 71.1905 62.0952 71.1905Z" fill="#FFA000"/>
<path d="M60.6558 61.5721H62.8341V63.669H60.6558V61.5721ZM60.6558 53.1846H62.8341V59.9995H60.6558V53.1846Z" fill="white"/>
</g>
<defs>
<clipPath id="clip0_84_6106">
<rect width="75" height="75" fill="white"/>
</clipPath>
</defs>
</svg>
