<svg width="75" height="75" viewBox="0 0 75 75" fill="none" xmlns="http://www.w3.org/2000/svg">
<path d="M30.8096 53.1071L23.3691 44.1786V35.25H38.2501V44.1786L30.8096 53.1071Z" fill="#F4A169"/>
<path d="M17.4169 23.3453C15.78 23.3453 14.4407 24.6846 14.4407 26.3215C14.4407 27.9584 15.78 29.2977 17.4169 29.2977C19.0538 29.2977 20.3931 27.9584 20.3931 26.3215C20.3931 24.6846 19.0538 23.3453 17.4169 23.3453ZM44.2026 23.3453C42.5657 23.3453 41.2264 24.6846 41.2264 26.3215C41.2264 27.9584 42.5657 29.2977 44.2026 29.2977C45.8395 29.2977 47.1788 27.9584 47.1788 26.3215C47.1788 24.6846 45.8395 23.3453 44.2026 23.3453Z" fill="#FAAC6D"/>
<path d="M44.2027 17.3927C44.2027 6.08313 17.417 9.95219 17.417 17.3927C17.417 19.0296 17.417 26.1724 17.417 27.8093C17.417 35.2498 23.3694 41.2022 30.8099 41.2022C38.2503 41.2022 44.2027 35.2498 44.2027 27.8093C44.2027 26.1724 44.2027 19.0296 44.2027 17.3927Z" fill="#FFC68A"/>
<path d="M30.8097 4C21.7323 4 15.9287 11.2917 15.9287 20.3691C15.9287 21.5596 15.9287 23.7917 15.9287 23.7917L18.9049 26.3215V18.881L36.762 12.9286L42.7144 18.881V26.3215L45.6906 23.7917C45.6906 23.7917 45.6906 21.5596 45.6906 20.3691C45.6906 14.4167 44.2025 8.46432 36.762 6.97619L35.2739 4H30.8097Z" fill="#8B422B"/>
<path d="M24.8572 24.8334C23.9644 24.8334 23.3691 25.4286 23.3691 26.3215C23.3691 27.2143 23.9644 27.8096 24.8572 27.8096C25.7501 27.8096 26.3453 27.2143 26.3453 26.3215C26.3453 25.4286 25.7501 24.8334 24.8572 24.8334ZM36.762 24.8334C35.8691 24.8334 35.2739 25.4286 35.2739 26.3215C35.2739 27.2143 35.8691 27.8096 36.762 27.8096C37.6549 27.8096 38.2501 27.2143 38.2501 26.3215C38.2501 25.4286 37.6549 24.8334 36.762 24.8334Z" fill="#97452B"/>
<path d="M38.25 44.1786L30.8095 45.6667L23.369 44.1786C23.369 44.1786 7 47.1548 7 63.5238H54.619C54.619 47.1548 38.25 44.1786 38.25 44.1786Z" fill="#E3F2FE"/>
<path d="M29.3218 50.131L27.8337 63.5238H33.7861L32.298 50.131L33.7861 48.6429L30.8099 45.6667L27.8337 48.6429L29.3218 50.131Z" fill="#8BC34A"/>
<path d="M46.498 25.2197C45.9919 25.2197 45.6544 25.5572 45.6544 26.0634V20.1577C45.6544 12.7335 39.5801 6.65912 32.1558 6.65912H26.2502C25.744 6.65912 25.4065 6.99658 25.4065 7.50278C25.4065 8.00899 25.744 8.34649 26.2502 8.34649H32.1558C38.652 8.34649 43.9671 13.6615 43.9671 20.1577V28.5943C43.9671 29.1005 44.3046 29.438 44.8108 29.438C45.317 29.438 45.6544 29.1005 45.6544 28.5943V30.2817C45.6544 33.572 43.039 36.1873 39.7488 36.1873H30.4685C29.9622 36.1873 29.6248 36.5248 29.6248 37.031C29.6248 37.5372 29.9622 37.8747 30.4685 37.8747H39.7488C43.9671 37.8747 47.3417 34.5001 47.3417 30.2817V26.0634C47.3417 25.5572 47.0042 25.2197 46.498 25.2197Z" fill="#726F91"/>
<path d="M30.4686 35.3434C29.5405 35.3434 28.7812 36.1026 28.7812 37.0307C28.7812 37.9587 29.5405 38.718 30.4686 38.718C31.3966 38.718 32.1559 37.9587 32.1559 37.0307C32.1559 36.1026 31.3966 35.3434 30.4686 35.3434ZM46.4983 23.532H45.6546C44.7265 23.532 43.9672 24.2914 43.9672 25.2194V28.5941C43.9672 29.5222 44.7265 30.2814 45.6546 30.2814H46.4983C47.4263 30.2814 48.1855 29.5222 48.1855 28.5941V25.2194C48.1855 24.2914 47.4263 23.532 46.4983 23.532Z" fill="#543964"/>
<path d="M54.7703 70.5095C62.0026 70.5095 67.8655 64.6465 67.8655 57.4142C67.8655 50.1819 62.0026 44.319 54.7703 44.319C47.538 44.319 41.675 50.1819 41.675 57.4142C41.675 64.6465 47.538 70.5095 54.7703 70.5095Z" fill="#FFA000"/>
<path d="M62.0762 62.9676H47.7292L46.2236 52.4656L51.3172 56.6291L54.9392 50.8445L58.4207 56.6291L63.6548 52.4656L62.0762 62.9676Z" fill="#FFECB3"/>
</svg>
