<svg width="75" height="75" viewBox="0 0 75 75" fill="none" xmlns="http://www.w3.org/2000/svg">
<path d="M36.9048 57.3117C29.4644 57.3117 29.4644 48.3832 29.4644 48.3832V39.4546H44.3453V48.3832C44.3453 48.3832 44.3453 57.3117 36.9048 57.3117Z" fill="#FAAC6D"/>
<path d="M26.488 30.526C26.488 28.8891 25.1487 27.5498 23.5118 27.5498C21.8749 27.5498 20.5356 28.8891 20.5356 30.526C20.5356 32.1629 21.8749 33.5022 23.5118 33.5022C25.1487 33.5022 26.488 32.1629 26.488 30.526ZM53.2737 30.526C53.2737 32.1629 51.9345 33.5022 50.2976 33.5022C48.6606 33.5022 47.3214 32.1629 47.3214 30.526C47.3214 28.8891 48.6606 27.5498 50.2976 27.5498C51.9345 27.5498 53.2737 28.8891 53.2737 30.526Z" fill="#F4A169"/>
<path d="M50.2979 21.5972C50.2979 10.2878 23.5122 14.1568 23.5122 21.5972V32.014C23.5122 39.4545 29.4646 45.4069 36.9051 45.4069C44.3455 45.4069 50.2979 39.4545 50.2979 32.014V21.5972Z" fill="#FFC68A"/>
<path d="M36.9049 8.20459C27.8275 8.20459 22.0239 15.4962 22.0239 24.5736V27.9962L25.0001 30.526V23.0855L42.8573 17.1331L48.8096 23.0855V30.526L51.7858 27.9962V24.5736C51.7858 18.6212 50.2977 12.6689 42.8573 11.1808L41.3692 8.20459H36.9049Z" fill="#8B422B"/>
<path d="M29.4644 30.5257C29.4644 31.4186 30.0596 32.0138 30.9525 32.0138C31.8453 32.0138 32.4405 31.4186 32.4405 30.5257C32.4405 29.6328 31.8453 29.0376 30.9525 29.0376C30.0596 29.0376 29.4644 29.6328 29.4644 30.5257ZM41.3691 30.5257C41.3691 29.6328 41.9644 29.0376 42.8572 29.0376C43.7501 29.0376 44.3453 29.6328 44.3453 30.5257C44.3453 31.4186 43.7501 32.0138 42.8572 32.0138C41.9644 32.0138 41.3691 31.4186 41.3691 30.5257Z" fill="#97452B"/>
<path d="M44.3452 48.3828C44.3452 48.3828 42.8571 54.3352 36.9047 54.3352C30.9524 54.3352 29.4643 48.3828 29.4643 48.3828C29.4643 48.3828 13.0952 51.359 13.0952 67.7281H60.7143C60.7143 51.359 44.3452 48.3828 44.3452 48.3828Z" fill="#78CAF9"/>
<path d="M36.9047 57.3114C44.3452 57.3114 46.8749 51.5078 47.1726 49.2757C45.5357 48.5316 44.3452 48.3828 44.3452 48.3828C44.3452 48.3828 42.8571 54.3352 36.9047 54.3352C30.9523 54.3352 29.4642 48.3828 29.4642 48.3828C29.4642 48.3828 28.2738 48.5316 26.488 49.2757C26.9345 51.5078 29.4642 57.3114 36.9047 57.3114Z" fill="#53A1E9"/>
<path d="M69.3754 52.0481C64.2614 46.9342 55.97 46.9342 50.856 52.0481C45.742 57.1621 45.742 65.4536 50.856 70.5676C55.97 75.6817 64.2614 75.6817 69.3754 70.5676C74.4895 65.4536 74.4895 57.1621 69.3754 52.0481Z" fill="#4DAD74"/>
<path d="M60.1157 50.6335L63.7524 54.2701L60.1157 57.9066V50.6335Z" fill="#DCEDC8"/>
<path d="M60.1157 52.6336V55.1792C58.4793 55.1792 56.7519 55.8157 55.57 56.9976C54.3881 58.1795 53.6608 59.8159 53.7516 61.5433C53.6608 63.2707 54.3881 64.9071 55.57 66.089C56.7519 67.2709 58.3883 67.9983 60.1157 67.9073C61.8431 67.8164 63.4796 67.2709 64.6615 66.089C65.8433 64.9071 66.5707 63.2707 66.4797 61.5433H69.0253C69.1163 63.9979 68.2071 66.18 66.4797 67.9073C64.7523 69.6347 62.5704 70.5439 60.1157 70.4529C57.661 70.362 55.3882 69.5438 53.6608 67.8164C51.9334 66.089 51.0243 63.9071 51.1151 61.4523C51.1151 59.0885 52.1152 56.8157 53.7516 55.1792C55.3882 53.5428 57.661 52.5427 60.1157 52.6336Z" fill="#DCEDC8"/>
</svg>
