<svg width="75" height="75" viewBox="0 0 75 75" fill="none" xmlns="http://www.w3.org/2000/svg">
<path d="M9.50114 24.5634H66.644V60.5891C66.644 62.5614 65.045 64.1605 63.0726 64.1605H13.0726C11.1001 64.1605 9.50114 62.5614 9.50114 60.5891V24.5634Z" fill="#DCEFFF"/>
<path d="M9.50114 24.5633H66.644V13.849C66.644 11.8766 65.045 10.2776 63.0726 10.2776H13.0726C11.1001 10.2776 9.50114 11.8766 9.50114 13.849V24.5633Z" fill="#5C6BA0"/>
<path d="M18.0481 20.9915C20.0205 20.9915 21.6195 19.3925 21.6195 17.4201C21.6195 15.4476 20.0205 13.8486 18.0481 13.8486C16.0757 13.8486 14.4767 15.4476 14.4767 17.4201C14.4767 19.3925 16.0757 20.9915 18.0481 20.9915Z" fill="#8A95BC"/>
<path d="M27.5932 20.9915C29.5656 20.9915 31.1646 19.3925 31.1646 17.4201C31.1646 15.4476 29.5656 13.8486 27.5932 13.8486C25.6208 13.8486 24.0218 15.4476 24.0218 17.4201C24.0218 19.3925 25.6208 20.9915 27.5932 20.9915Z" fill="#8A95BC"/>
<path d="M35.1536 30.6508H16.7544V58.0727H35.1536V30.6508Z" fill="#B7D2F2"/>
<path d="M59.6148 30.6508H38.0726V35.0737H59.6148V30.6508Z" fill="#B7D2F2"/>
<path d="M59.6148 38.3173H38.0726V42.7402H59.6148V38.3173Z" fill="#B7D2F2"/>
<path d="M59.6148 45.9839H38.0726V50.4069H59.6148V45.9839Z" fill="#B7D2F2"/>
<path d="M59.6148 53.65H38.0726V58.073H59.6148V53.65Z" fill="#B7D2F2"/>
<circle cx="58" cy="57" r="8" fill="#DCEFFF" fill-opacity="0.5"/>
<path d="M72.6597 68.8152L65.87 62.3206C68.4942 58.5321 68.0777 53.2864 64.7036 49.8726C60.8714 46.0425 54.7064 46.0425 50.8742 49.8726C47.0419 53.7027 47.0419 59.8643 50.8742 63.6944C54.2482 67.0666 59.4968 67.4829 63.329 64.8601L69.8272 71.6878C70.2437 72.1041 70.9102 72.1041 71.3267 71.6878L72.743 70.2723C73.1179 69.8976 73.0763 69.2315 72.6597 68.8152ZM62.9958 62.0291C60.1216 64.9017 55.4562 64.9017 52.582 62.0291C49.7079 59.1565 49.6662 54.4938 52.582 51.6211C55.4979 48.7485 60.1216 48.7485 62.9958 51.6211C65.87 54.4938 65.87 59.1565 62.9958 62.0291Z" fill="#9751BA"/>
</svg>
