<svg width="75" height="75" viewBox="0 0 75 75" fill="none" xmlns="http://www.w3.org/2000/svg">
<path d="M51.4074 54.5823C48.2328 54.5823 26.0105 54.5823 22.836 54.5823C19.6614 54.5823 19.6614 57.7073 19.6614 57.7073V59.2698H54.582V57.7073C54.582 57.7073 54.582 54.5823 51.4074 54.5823ZM32.3598 49.8948H41.8836V54.5823H32.3598V49.8948Z" fill="#4C4882"/>
<path d="M62.1214 9.36426H12.1674C10.1949 9.36426 8.59595 10.9632 8.59595 12.9357V46.3229C8.59595 48.2954 10.1949 49.8944 12.1674 49.8944H62.1214C64.0939 49.8944 65.6929 48.2954 65.6929 46.3229V12.9357C65.6929 10.9632 64.0939 9.36426 62.1214 9.36426Z" fill="#5C6BA0"/>
<path d="M60.9794 12.5098H13.2637C12.6062 12.5098 12.0732 13.0428 12.0732 13.7002V43.3432C12.0732 44.0007 12.6062 44.5337 13.2637 44.5337H60.9794C61.6369 44.5337 62.1699 44.0007 62.1699 43.3432V13.7002C62.1699 13.0428 61.6369 12.5098 60.9794 12.5098Z" fill="#DCEFFF"/>
<path d="M49.0817 25H27.5714C25.599 25 24 26.599 24 28.5714V30.3907C24 32.3631 25.599 33.9621 27.5714 33.9621H49.0817C51.0541 33.9621 52.6531 32.3631 52.6531 30.3907V28.5714C52.6531 26.599 51.0541 25 49.0817 25Z" fill="white"/>
<path d="M25.1282 28.628C25.1282 27.313 26.1942 26.2471 27.5091 26.2471H40.5161V32.715H27.5091C26.1942 32.715 25.1282 31.649 25.1282 30.3341V28.628Z" fill="#8BC34A"/>
<path d="M61.1485 71.9385C68.3808 71.9385 74.2437 66.0755 74.2437 58.8433C74.2437 51.611 68.3808 45.748 61.1485 45.748C53.9162 45.748 48.0532 51.611 48.0532 58.8433C48.0532 66.0755 53.9162 71.9385 61.1485 71.9385Z" fill="#5797F8"/>
<path d="M58.6805 62.6594C58.2576 62.6594 57.9116 62.3014 57.9116 61.8637V57.8853H56.374V61.8637C56.374 63.1767 57.4119 64.2509 58.6805 64.2509H65.9839V62.6594H58.6805Z" fill="white"/>
<path fill-rule="evenodd" clip-rule="evenodd" d="M53.6836 53.9069C53.6836 53.9069 53.6835 53.9069 53.6834 53.9069C53.2587 53.9069 52.9146 53.5505 52.9146 53.1111C52.9146 52.6717 53.2587 52.3154 53.6834 52.3154C53.6835 52.3154 53.6836 52.3154 53.6836 52.3154H55.0674C55.721 52.3154 56.2975 52.7531 56.5281 53.3896L56.6819 53.9069H68.8287L65.9074 60.5907C65.792 60.8691 65.523 61.0681 65.2155 61.0681H57.9119C57.566 61.0681 57.2969 60.8294 57.1816 60.5111L55.0674 53.9069H53.6838C53.6837 53.9069 53.6837 53.9069 53.6836 53.9069Z" fill="white"/>
<path d="M59.0646 65.2739C58.4111 65.2739 57.9114 65.7912 57.9114 66.4675C57.9114 67.1438 58.4111 67.6611 59.0646 67.6611C59.718 67.6611 60.2178 67.1438 60.2178 66.4675C60.2178 65.7912 59.718 65.2739 59.0646 65.2739ZM64.8305 65.2739C64.1771 65.2739 63.6773 65.7912 63.6773 66.4675C63.6773 67.1438 64.1771 67.6611 64.8305 67.6611C65.484 67.6611 65.9836 67.1438 65.9836 66.4675C65.9836 65.7912 65.484 65.2739 64.8305 65.2739Z" fill="white"/>
</svg>
