<svg width="75" height="75" viewBox="0 0 75 75" fill="none" xmlns="http://www.w3.org/2000/svg">
<path d="M8.33325 23.4028H65.4761V61.614C65.4761 63.5865 63.8772 65.1854 61.9047 65.1854H11.9047C9.93224 65.1854 8.33325 63.5865 8.33325 61.614V23.4028Z" fill="#DCEFFF"/>
<path d="M48.0817 45H26.5714C24.599 45 23 46.599 23 48.5714V50.3907C23 52.3631 24.599 53.9621 26.5714 53.9621H48.0817C50.0541 53.9621 51.6531 52.3631 51.6531 50.3907V48.5714C51.6531 46.599 50.0541 45 48.0817 45Z" fill="white"/>
<path d="M24.1282 48.628C24.1282 47.313 25.1942 46.2471 26.5091 46.2471H39.5161V52.715H26.5091C25.1942 52.715 24.1282 51.649 24.1282 50.3341V48.628Z" fill="#8BC34A"/>
<path d="M59.8675 74.7178C67.0998 74.7178 72.9627 68.8549 72.9627 61.6226C72.9627 54.3903 67.0998 48.5273 59.8675 48.5273C52.6352 48.5273 46.7722 54.3903 46.7722 61.6226C46.7722 68.8549 52.6352 74.7178 59.8675 74.7178Z" fill="#5797F8"/>
<path d="M62.5057 61.6224C62.5057 63.0998 61.3449 64.2606 59.8675 64.2606C58.3901 64.2606 57.2294 63.0998 57.2294 61.6224C57.2294 60.145 58.3901 58.9843 59.8675 58.9843C61.3449 58.9843 62.5057 60.145 62.5057 61.6224ZM65.6188 62.2556C65.6188 62.0446 65.6716 61.8335 65.6716 61.6224C65.6716 61.4113 65.6716 61.2004 65.6188 60.9893L67.6238 59.6174C67.782 59.5119 67.8349 59.2481 67.7293 59.0898L66.0936 56.2934C65.9881 56.135 65.777 56.0296 65.566 56.135L63.4028 57.0848C63.0333 56.7682 62.6112 56.5572 62.1364 56.3461L61.9254 54.13C61.9254 53.919 61.7143 53.7607 61.5032 53.7607H58.1792C57.9681 53.7607 57.8098 53.919 57.757 54.13L57.546 56.3461C57.0711 56.5572 56.7018 56.7682 56.2797 57.0848L54.1691 56.135C53.9581 56.0823 53.747 56.135 53.6415 56.2934L52.0059 59.0898C51.9003 59.2481 51.9531 59.5119 52.1113 59.6174L54.1163 60.9893C54.0636 61.1475 54.0636 61.4113 54.0636 61.6224C54.0636 61.8335 54.0636 62.0446 54.1163 62.2556L52.1113 63.6274C51.9531 63.733 51.9003 63.9968 52.0059 64.155L53.6415 66.9516C53.747 67.1098 53.9581 67.2154 54.1691 67.1098L56.3324 66.16C56.7018 66.4767 57.1238 66.6878 57.546 66.8987L57.757 69.1148C57.757 69.3259 57.9681 69.4842 58.1792 69.4842H61.5032C61.7143 69.4842 61.8725 69.3259 61.9254 69.1148L62.1364 66.8987C62.6112 66.6878 63.0333 66.424 63.4028 66.16L65.5132 67.1098C65.7243 67.1626 65.9354 67.1098 66.0409 66.9516L67.6766 64.155C67.782 63.9968 67.7293 63.733 67.571 63.6274L65.6188 62.2556Z" fill="white"/>
<path d="M8.33325 23.4029H65.4761V12.6887C65.4761 10.7162 63.8772 9.11719 61.9047 9.11719H11.9047C9.93224 9.11719 8.33325 10.7162 8.33325 12.6887V23.4029Z" fill="#5C6BA0"/>
<path d="M16.8805 19.8313C18.853 19.8313 20.4519 18.2323 20.4519 16.2599C20.4519 14.2875 18.853 12.6885 16.8805 12.6885C14.9081 12.6885 13.3091 14.2875 13.3091 16.2599C13.3091 18.2323 14.9081 19.8313 16.8805 19.8313Z" fill="#8A95BC"/>
<path d="M26.4259 19.8313C28.3984 19.8313 29.9973 18.2323 29.9973 16.2599C29.9973 14.2875 28.3984 12.6885 26.4259 12.6885C24.4535 12.6885 22.8545 14.2875 22.8545 16.2599C22.8545 18.2323 24.4535 19.8313 26.4259 19.8313Z" fill="#8A95BC"/>
<path d="M24.9099 41.3966C25.5432 41.7466 26.8099 42.0799 28.0932 42.0799C31.1766 42.0799 32.6266 40.4799 32.6266 38.5966C32.6266 37.0132 31.6932 35.9799 29.7099 35.2466C28.2599 34.6966 27.6266 34.3799 27.6266 33.6632C27.6266 33.0799 28.1599 32.5799 29.2599 32.5799C30.3599 32.5799 31.1599 32.8966 31.6099 33.1132L32.1766 31.0632C31.5099 30.7632 30.5766 30.4966 29.3099 30.4966C26.6599 30.4966 25.0599 31.9632 25.0599 33.8799C25.0599 35.5132 26.2766 36.5466 28.1432 37.1966C29.4932 37.6799 30.0266 38.0799 30.0266 38.7799C30.0266 39.5132 29.4099 39.9966 28.2432 39.9966C27.1599 39.9966 26.1099 39.6466 25.4266 39.2966L24.9099 41.3966ZM33.9105 41.3966C34.5438 41.7466 35.8105 42.0799 37.0938 42.0799C40.1772 42.0799 41.6272 40.4799 41.6272 38.5966C41.6272 37.0132 40.6938 35.9799 38.7105 35.2466C37.2605 34.6966 36.6272 34.3799 36.6272 33.6632C36.6272 33.0799 37.1605 32.5799 38.2605 32.5799C39.3605 32.5799 40.1605 32.8966 40.6105 33.1132L41.1772 31.0632C40.5105 30.7632 39.5772 30.4966 38.3105 30.4966C35.6605 30.4966 34.0605 31.9632 34.0605 33.8799C34.0605 35.5132 35.2772 36.5466 37.1438 37.1966C38.4938 37.6799 39.0272 38.0799 39.0272 38.7799C39.0272 39.5132 38.4105 39.9966 37.2438 39.9966C36.1605 39.9966 35.1105 39.6466 34.4272 39.2966L33.9105 41.3966ZM43.3446 41.9132H50.3612V39.7799H45.8946V30.6799H43.3446V41.9132Z" fill="#80AADF"/>
</svg>
