<svg width="75" height="75" viewBox="0 0 75 75" fill="none" xmlns="http://www.w3.org/2000/svg">
<path d="M17.1932 70.3886C14.3676 70.3886 12.2068 68.2279 12.2068 65.4023V8.8911C12.2068 6.06554 14.3676 3.90482 17.1932 3.90482H43.7867L62.0697 22.1879V65.4023C62.0697 68.2279 59.909 70.3886 57.0834 70.3886H17.1932Z" fill="#DCEFFF"/>
<path d="M41.2186 30.1594C41.2186 32.1354 39.6661 33.688 37.6901 33.688C35.7142 33.688 34.1617 32.1354 34.1617 30.1594C34.1617 28.1835 35.7142 26.631 37.6901 26.631C39.6661 26.631 41.2186 28.1835 41.2186 30.1594ZM45.3822 31.0063C45.3822 30.7241 45.4528 30.4418 45.4528 30.1594C45.4528 29.8772 45.4528 29.5949 45.3822 29.3126L48.0638 27.4779C48.2755 27.3367 48.3461 26.9838 48.205 26.7722L46.0173 23.0319C45.8762 22.8202 45.594 22.6791 45.3116 22.8203L42.4182 24.0905C41.9243 23.667 41.3598 23.3848 40.7247 23.1025L40.4423 20.1386C40.4423 19.8563 40.16 19.6447 39.8778 19.6447H35.4319C35.1497 19.6447 34.9379 19.8563 34.8673 20.1386L34.585 23.1025C33.9499 23.3848 33.456 23.667 32.8915 24.0905L30.0686 22.8203C29.7863 22.7497 29.5041 22.8202 29.3629 23.0319L27.1753 26.7722C27.0341 26.9838 27.1047 27.3367 27.3165 27.4779L29.998 29.3126C29.9275 29.5243 29.9275 29.8772 29.9275 30.1594C29.9275 30.4418 29.9275 30.7241 29.998 31.0063L27.3165 32.8411C27.1047 32.9823 27.0341 33.3351 27.1753 33.5468L29.3629 37.287C29.5041 37.4987 29.7863 37.6398 30.0686 37.4987L32.9619 36.2285C33.456 36.6519 34.0205 36.9342 34.585 37.2164L34.8673 40.1804C34.8673 40.4626 35.1497 40.6743 35.4319 40.6743H39.8778C40.16 40.6743 40.3718 40.4626 40.4423 40.1804L40.7247 37.2164C41.3598 36.9342 41.9243 36.5813 42.4182 36.2285L45.2411 37.4987C45.5234 37.5693 45.8056 37.4987 45.9468 37.287L48.1344 33.5468C48.2755 33.3351 48.205 32.9823 47.9932 32.8411L45.3822 31.0063Z" fill="#4CAEF5"/>
<path d="M61.9042 41.6667C56.7111 41.6667 52.4623 45.9554 52.4623 51.1972V55.0093H56.2391V51.1972C56.2391 48.052 58.7883 45.4789 61.9042 45.4789C65.02 45.4789 67.5693 48.052 67.5693 51.1972V55.0093H71.3461V51.1972C71.3461 45.9554 67.0972 41.6667 61.9042 41.6667Z" fill="#484381"/>
<path d="M71.9187 73.9963H51.8906C50.1959 73.9963 48.8094 72.5967 48.8094 70.8861V56.8907C48.8094 55.1801 50.1959 53.7805 51.8906 53.7805H71.9187C73.6133 53.7805 74.9999 55.1801 74.9999 56.8907V70.8861C74.9999 72.5967 73.6133 73.9963 71.9187 73.9963Z" fill="#8BC34A"/>
<path d="M63.7996 63.8885C63.7996 64.9718 62.9789 65.8003 61.9055 65.8003C60.8323 65.8003 60.0115 64.9718 60.0115 63.8885C60.0115 62.8052 60.8323 61.9767 61.9055 61.9767C62.9789 61.9767 63.7996 62.8052 63.7996 63.8885ZM70.1131 63.8885C70.1131 64.9718 69.2923 65.8003 68.219 65.8003C67.1458 65.8003 66.325 64.9718 66.325 63.8885C66.325 62.8052 67.1458 61.9767 68.219 61.9767C69.2923 61.9767 70.1131 62.8052 70.1131 63.8885ZM57.4861 63.8885C57.4861 64.9718 56.6654 65.8003 55.5921 65.8003C54.5189 65.8003 53.6982 64.9718 53.6982 63.8885C53.6982 62.8052 54.5189 61.9767 55.5921 61.9767C56.6654 61.9767 57.4861 62.8052 57.4861 63.8885Z" fill="#DCEDC8"/>
<path d="M62.0698 22.1879H48.7731C45.9475 22.1879 43.7867 20.0272 43.7867 17.2016V3.90482L62.0698 22.1879Z" fill="#99C1F4"/>
<path d="M47.3247 47.3173H22.417V50.6384H47.3247V47.3173Z" fill="#B7D2F2"/>
<path d="M42.3432 55.0664H22.417V58.3874H42.3432V55.0664Z" fill="#B7D2F2"/>
</svg>
