<svg width="75" height="75" viewBox="0 0 75 75" fill="none" xmlns="http://www.w3.org/2000/svg">
<g clip-path="url(#clip0_70_5103)">
<path d="M9.50114 24.5632H66.644V60.5889C66.644 62.5613 65.045 64.1604 63.0726 64.1604H13.0726C11.1001 64.1604 9.50114 62.5613 9.50114 60.5889V24.5632Z" fill="#DCEFFF"/>
<path d="M9.50114 24.5633H66.644V13.849C66.644 11.8766 65.045 10.2776 63.0726 10.2776H13.0726C11.1001 10.2776 9.50114 11.8766 9.50114 13.849V24.5633Z" fill="#5C6BA0"/>
<path d="M18.0481 20.9915C20.0205 20.9915 21.6195 19.3925 21.6195 17.4201C21.6195 15.4476 20.0205 13.8486 18.0481 13.8486C16.0757 13.8486 14.4767 15.4476 14.4767 17.4201C14.4767 19.3925 16.0757 20.9915 18.0481 20.9915Z" fill="#8A95BC"/>
<path d="M27.5932 20.9915C29.5656 20.9915 31.1646 19.3925 31.1646 17.4201C31.1646 15.4476 29.5656 13.8486 27.5932 13.8486C25.6208 13.8486 24.0218 15.4476 24.0218 17.4201C24.0218 19.3925 25.6208 20.9915 27.5932 20.9915Z" fill="#8A95BC"/>
<path d="M35.1536 30.6509H16.7544V58.0728H35.1536V30.6509Z" fill="#B7D2F2"/>
<path d="M59.6148 30.6509H38.0726V35.0739H59.6148V30.6509Z" fill="#B7D2F2"/>
<path d="M59.6148 38.3174H38.0726V42.7404H59.6148V38.3174Z" fill="#B7D2F2"/>
<path d="M59.6148 45.9839H38.0726V50.4069H59.6148V45.9839Z" fill="#B7D2F2"/>
<path d="M59.6148 53.6499H38.0726V58.0729H59.6148V53.6499Z" fill="#B7D2F2"/>
<path d="M62.0952 73.1905C69.3275 73.1905 75.1905 67.3275 75.1905 60.0952C75.1905 52.8629 69.3275 47 62.0952 47C54.8629 47 49 52.8629 49 60.0952C49 67.3275 54.8629 73.1905 62.0952 73.1905Z" fill="#FFA000"/>
<path d="M58.9334 52.7228C58.5488 52.4606 58.0251 52.5603 57.7634 52.9448L56.1652 55.2911L55.3979 54.6168C55.0486 54.31 54.5165 54.3439 54.2095 54.6936C53.9027 55.0429 53.9368 55.5748 54.2861 55.8822L55.516 56.9629C55.7275 57.1489 55.9969 57.2502 56.2717 57.2502C56.3185 57.2502 56.3654 57.2474 56.4121 57.2413C56.7341 57.2006 57.0253 57.0209 57.2107 56.7485L59.1554 53.8929C59.4173 53.5084 59.3177 52.9848 58.9334 52.7228Z" fill="white"/>
<path d="M58.9334 58.0775C58.5488 57.8153 58.0251 57.915 57.7634 58.2996L56.1652 60.6462L55.3979 59.9716C55.0486 59.6651 54.5165 59.6988 54.2095 60.0482C53.9027 60.3977 53.9368 60.9296 54.2861 61.2368L55.516 62.3178C55.7275 62.5038 55.9969 62.6049 56.2717 62.6049C56.3185 62.6049 56.3654 62.6016 56.4121 62.5955C56.7341 62.5552 57.0253 62.3754 57.2107 62.1029L59.1554 59.2475C59.4173 58.8629 59.3177 58.3394 58.9334 58.0775Z" fill="white"/>
<path d="M58.9334 63.4321C58.5488 63.1701 58.0251 63.2698 57.7634 63.654L56.1652 66.0008L55.3979 65.326C55.0486 65.0195 54.5165 65.0531 54.2095 65.4028C53.9027 65.7523 53.9368 66.2844 54.2861 66.5912L55.516 67.6725C55.7275 67.8586 55.9969 67.9596 56.2717 67.9596C56.3185 67.9596 56.3654 67.9564 56.4121 67.9503C56.7341 67.9098 57.0253 67.7301 57.2107 67.4575L59.1554 64.6021C59.4173 64.2179 59.3177 63.6938 58.9334 63.4321Z" fill="white"/>
<path d="M61.1812 56.5487H68.9333C69.5223 56.5487 70 56.0715 70 55.482C70 54.8934 69.5221 54.4155 68.9333 54.4155H61.1812C60.5923 54.4155 60.1146 54.8932 60.1146 55.482C60.1146 56.0713 60.5923 56.5487 61.1812 56.5487Z" fill="white"/>
<path d="M68.9333 59.77H61.1812C60.5923 59.77 60.1146 60.2477 60.1146 60.8367C60.1146 61.4258 60.5923 61.9033 61.1812 61.9033H68.9333C69.5223 61.9033 70 61.4258 70 60.8367C70 60.2479 69.5223 59.77 68.9333 59.77Z" fill="white"/>
<path d="M68.9333 65.1245H61.1812C60.5923 65.1245 60.1146 65.6024 60.1146 66.1912C60.1146 66.7803 60.5923 67.2578 61.1812 67.2578H68.9333C69.5223 67.2578 70 66.7805 70 66.1912C70 65.6024 69.5223 65.1245 68.9333 65.1245Z" fill="white"/>
</g>
<defs>
<clipPath id="clip0_70_5103">
<rect width="75" height="75" fill="white"/>
</clipPath>
</defs>
</svg>
